<svg width="85" height="73" viewBox="0 0 85 73" fill="none" xmlns="http://www.w3.org/2000/svg">
<g clip-path="url(#clip0_1529_3394)">
<path d="M66.4 16.7C65.8 16.6 65.2 16.6 64.6 16.6C53.5 16.6 44.5 29.2 44.5 44.8C44.5 60.4 53.4 73 64.5 73C65.1 73 65.7 73 66.3 72.9C61.7 66.3 58.8 56.2 58.8 44.8C58.8 33.4 61.8 23.3 66.4 16.7Z" fill="white"/>
<path d="M84.7 44.7999C84.7 30.0999 76.7 18 66.4 16.7C61.8 23.3 58.9 33.4 58.9 44.7999C58.9 56.2 61.8 66.3 66.4 72.9C76.6 71.6 84.7 59.5 84.7 44.7999Z" fill="#073778"/>
<path d="M21.9 16.7C21.3 16.6 20.7 16.6 20.1 16.6C9 16.6 0 29.2 0 44.8C0 60.4 9 73 20.1 73C20.7 73 21.3 73 21.9 72.9C17.3 66.3 14.4 56.2 14.4 44.8C14.4 33.4 17.4 23.3 21.9 16.7Z" fill="white"/>
<path d="M40.2 44.7999C40.2 30.0999 32.2 18 21.9 16.7C17.3 23.3 14.4 33.4 14.4 44.7999C14.4 56.2 17.3 66.3 21.9 72.9C32.2 71.6 40.2 59.5 40.2 44.7999Z" fill="#073778"/>
<path d="M40.9001 71C39.5001 71 38.4001 70.7999 38.4001 70.6999C37.8001 70.4999 37.4001 69.9 37.5001 69.3C37.7001 68.7 38.3001 68.3 38.9001 68.4C39.1001 68.5 44.5001 69.6999 45.5001 65.6999C46.4001 61.6999 41.2001 60.1999 40.9001 60.1C40.3001 59.9 39.9001 59.3 40.1001 58.6C40.3001 57.9999 40.9001 57.6 41.6001 57.8C44.3001 58.5 49.0001 61.1999 47.9001 66.1999C47.5001 67.7999 46.7001 69.1 45.3001 69.9C43.9001 70.8 42.3001 71 40.9001 71Z" fill="#073778"/>
<path d="M31.5 6.19998C31.2 6.19998 30.9 6.09998 30.6 5.79998C28.4 3.59998 26.1 2.39998 23.7 2.49998C19.9 2.59998 17.1 5.59998 17.1 5.59998C16.7 6.09998 15.9 6.09998 15.4 5.69998C14.9 5.29998 14.9 4.49998 15.3 3.99998C15.4 3.79998 18.8 0.199978 23.6 0.0999781C26.7 -2.18675e-05 29.6 1.39998 32.3 4.09998C32.8 4.59998 32.8 5.29998 32.3 5.79998C32.1 6.09998 31.8 6.19998 31.5 6.19998Z" fill="#073778"/>
<path d="M72.7 6.1C72.4 6.1 72.1 6 71.8 5.7C69.6 3.5 67.3 2.4 64.9 2.4C61.1 2.5 58.3 5.5 58.3 5.5C57.9 6 57.1 6 56.6 5.6C56.1 5.2 56.1 4.4 56.5 3.9C56.7 3.8 60 0.100003 64.9 2.5495e-06C68 -0.0999975 70.9 1.3 73.6 4C74.1 4.5 74.1 5.2 73.6 5.7C73.3 5.9 73 6.1 72.7 6.1Z" fill="#073778"/>
</g>
<defs>
<clipPath id="clip0_1529_3394">
<rect width="84.7" height="73" fill="white"/>
</clipPath>
</defs>
</svg>
