<svg width="87" height="19" viewBox="0 0 87 19" fill="none" xmlns="http://www.w3.org/2000/svg">
<path d="M0.035 18L2.979 0.658H7.441L10.914 9.904L14.364 0.658H18.826L21.77 18H17.285L15.79 8.018L11.696 18H9.902L6.015 8.018L4.52 18H0.035ZM31.4336 0.658V18H26.9256V0.658H31.4336ZM36.5745 18L39.5185 0.658H43.9805L47.4535 9.904L50.9035 0.658H55.3655L58.3095 18H53.8245L52.3295 8.018L48.2355 18H46.4415L42.5545 8.018L41.0595 18H36.5745ZM67.973 0.658V18H63.465V0.658H67.973ZM86.3849 6.454C85.3422 5.18133 84.0542 4.545 82.5209 4.545C81.8462 4.545 81.2176 4.66767 80.6349 4.913C80.0676 5.15833 79.5769 5.49567 79.1629 5.925C78.7489 6.339 78.4192 6.83733 78.1739 7.42C77.9439 8.00267 77.8289 8.63133 77.8289 9.306C77.8289 9.996 77.9439 10.6323 78.1739 11.215C78.4192 11.7977 78.7489 12.3037 79.1629 12.733C79.5922 13.1623 80.0906 13.4997 80.6579 13.745C81.2252 13.9903 81.8386 14.113 82.4979 14.113C83.9392 14.113 85.2349 13.4997 86.3849 12.273V17.609L85.9249 17.77C85.2349 18.0153 84.5909 18.1917 83.9929 18.299C83.3949 18.4217 82.8046 18.483 82.2219 18.483C81.0259 18.483 79.8759 18.2607 78.7719 17.816C77.6832 17.356 76.7172 16.7197 75.8739 15.907C75.0459 15.079 74.3789 14.1053 73.8729 12.986C73.3669 11.8513 73.1139 10.617 73.1139 9.283C73.1139 7.949 73.3592 6.73 73.8499 5.626C74.3559 4.50667 75.0229 3.54833 75.8509 2.751C76.6942 1.93833 77.6679 1.30967 78.7719 0.864999C79.8759 0.404999 81.0336 0.174999 82.2449 0.174999C82.9349 0.174999 83.6096 0.251666 84.2689 0.404999C84.9436 0.542999 85.6489 0.765332 86.3849 1.072V6.454Z" fill="black"/>
</svg>
