<svg width="25" height="27" viewBox="0 0 25 27" fill="none" xmlns="http://www.w3.org/2000/svg">
<path fill-rule="evenodd" clip-rule="evenodd" d="M8.40137 1C8.40137 0.585786 8.06558 0.25 7.65137 0.25C7.23715 0.25 6.90137 0.585786 6.90137 1V2.75H3.90137C2.10644 2.75 0.651367 4.20507 0.651367 6V11V23.5C0.651367 25.2949 2.10644 26.75 3.90137 26.75H21.4014C23.1963 26.75 24.6514 25.2949 24.6514 23.5V11V6C24.6514 4.20507 23.1963 2.75 21.4014 2.75H18.4014V1C18.4014 0.585786 18.0656 0.25 17.6514 0.25C17.2372 0.25 16.9014 0.585786 16.9014 1V2.75H8.40137V1ZM3.90137 4.25H6.90137V6C6.90137 6.41421 7.23715 6.75 7.65137 6.75C8.06558 6.75 8.40137 6.41421 8.40137 6V4.25H16.9014V6C16.9014 6.41421 17.2372 6.75 17.6514 6.75C18.0656 6.75 18.4014 6.41421 18.4014 6V4.25H21.4014C22.3679 4.25 23.1514 5.0335 23.1514 6V10.25H2.15137V6C2.15137 5.0335 2.93487 4.25 3.90137 4.25ZM2.15137 11.75H23.1514V23.5C23.1514 24.4665 22.3679 25.25 21.4014 25.25H3.90137C2.93487 25.25 2.15137 24.4665 2.15137 23.5V11.75ZM18.939 15.3221C19.2278 15.0252 19.2212 14.5504 18.9243 14.2616C18.6274 13.9728 18.1525 13.9793 17.8637 14.2763L11.5994 20.7168L8.94525 17.9216C8.66004 17.6212 8.18532 17.6089 7.88494 17.8941C7.58457 18.1793 7.57227 18.654 7.85748 18.9544L11.049 22.3156C11.1895 22.4636 11.3843 22.548 11.5883 22.5492C11.7924 22.5504 11.9882 22.4684 12.1305 22.3221L18.939 15.3221Z" fill="#FF6D53"/>
</svg>
