<svg width="25" height="27" viewBox="0 0 25 27" fill="none" xmlns="http://www.w3.org/2000/svg">
<path fill-rule="evenodd" clip-rule="evenodd" d="M8.40112 1C8.40112 0.585786 8.06534 0.25 7.65112 0.25C7.23691 0.25 6.90112 0.585786 6.90112 1V2.75H3.90112C2.1062 2.75 0.651123 4.20507 0.651123 6V11V23.5C0.651123 25.2949 2.1062 26.75 3.90112 26.75H21.4011C23.196 26.75 24.6511 25.2949 24.6511 23.5V11V6C24.6511 4.20507 23.1961 2.75 21.4011 2.75H18.4011V1C18.4011 0.585786 18.0653 0.25 17.6511 0.25C17.2369 0.25 16.9011 0.585786 16.9011 1V2.75H8.40112V1ZM3.90112 4.25H6.90112V6C6.90112 6.41421 7.23691 6.75 7.65112 6.75C8.06534 6.75 8.40112 6.41421 8.40112 6V4.25H16.9011V6C16.9011 6.41421 17.2369 6.75 17.6511 6.75C18.0653 6.75 18.4011 6.41421 18.4011 6V4.25H21.4011C22.3676 4.25 23.1511 5.0335 23.1511 6V10.25H2.15112V6C2.15112 5.0335 2.93462 4.25 3.90112 4.25ZM2.15112 11.75H23.1511V23.5C23.1511 24.4665 22.3676 25.25 21.4011 25.25H3.90112C2.93462 25.25 2.15112 24.4665 2.15112 23.5V11.75ZM18.9388 15.3221C19.2276 15.0252 19.221 14.5504 18.924 14.2616C18.6271 13.9728 18.1523 13.9793 17.8635 14.2763L11.5991 20.7168L8.94501 17.9216C8.65979 17.6212 8.18508 17.6089 7.8847 17.8941C7.58432 18.1793 7.57203 18.654 7.85724 18.9544L11.0487 22.3156C11.1893 22.4636 11.384 22.548 11.5881 22.5492C11.7922 22.5504 11.988 22.4684 12.1302 22.3221L18.9388 15.3221Z" fill="#313131"/>
</svg>
