<svg width="50" height="63" viewBox="0 0 50 63" fill="none" xmlns="http://www.w3.org/2000/svg">
<path d="M17.0052 39.0467L21.0646 27.6649C24.9982 28.8527 28.2463 29.0967 30.809 28.3969C33.4364 27.6664 35.2607 25.8695 36.282 23.0061L36.6394 22.004C37.4223 19.8087 37.3585 17.8763 36.4477 16.2067C35.554 14.4893 33.9857 13.2307 31.7428 12.4307C29.3567 11.5797 27.201 11.5908 25.2757 12.4642C23.3505 13.3375 21.7424 14.7543 20.4515 16.7146L14.6213 11.569C15.5784 10.2428 16.7094 9.03239 18.0143 7.93779C19.3669 6.86022 20.8746 6.02626 22.5376 5.43592C24.2176 4.79786 26.051 4.48351 28.038 4.49288C30.042 4.45452 32.1894 4.84384 34.4801 5.66082C36.8184 6.49482 38.8229 7.58628 40.4936 8.93521C42.1642 10.2841 43.4463 11.8173 44.34 13.5346C45.2507 15.2043 45.7491 17.0496 45.8352 19.0706C45.9383 21.0439 45.6154 23.0805 44.8665 25.1803C44.1006 27.3278 43.0295 29.1244 41.6532 30.57C40.3416 31.985 38.8527 33.0677 37.1864 33.8183C35.5678 34.5858 33.8588 35.079 32.0594 35.2979C30.277 35.4691 28.5234 35.4085 26.7987 35.1162L24.4499 41.7018L17.0052 39.0467ZM14.9016 56.9356C13.0881 56.2888 11.9051 55.3827 11.3525 54.2173C10.8646 53.0213 10.8674 51.7313 11.361 50.3473L11.795 49.1304C12.2886 47.7464 13.0942 46.7696 14.2119 46.2C15.3943 45.5996 16.8922 45.6228 18.7057 46.2696C20.5191 46.9164 21.6698 47.8378 22.1577 49.0339C22.7103 50.1993 22.7398 51.4739 22.2462 52.8579L21.8122 54.0748C21.3186 55.4587 20.4806 56.4509 19.2982 57.0512C18.1806 57.6209 16.715 57.5823 14.9016 56.9356Z" fill="#073778"/>
</svg>
