<svg width="64" height="71" viewBox="0 0 64 71" fill="none" xmlns="http://www.w3.org/2000/svg">
<path d="M63.6747 31.104C63.6747 13.32 50.2107 0.287996 31.9947 0.287996C13.7787 0.287996 0.314656 13.32 0.314656 31.104C0.314656 48.888 13.7787 61.92 31.9947 61.92C36.5307 61.92 40.7787 61.128 44.5227 59.616L53.0187 70.272L63.4587 62.28L55.5387 52.272C60.6507 46.872 63.6747 39.528 63.6747 31.104ZM31.9947 50.112C21.3387 50.112 13.4187 42.12 13.4187 31.104C13.4187 20.016 21.3387 12.096 31.9947 12.096C42.6507 12.096 50.5707 20.016 50.5707 31.104C50.5707 35.28 49.4187 39.024 47.4747 42.048L39.4107 31.896L28.8987 39.96L36.5307 49.608C35.0907 49.968 33.5787 50.112 31.9947 50.112Z" fill="#FF6D53"/>
</svg>
