<svg id="Layer_1" data-name="Layer 1" xmlns="http://www.w3.org/2000/svg" viewBox="0 0 450 120"><defs><style>.cls-1,.cls-17{fill:#ff6d53;}.cls-2{font-size:24.21px;letter-spacing:-0.01em;}.cls-2,.cls-5,.cls-6,.cls-9{fill:#fff;}.cls-17,.cls-2{font-family:GmarketSansBold-KSCpc-EUC-H, Gmarket Sans;}.cls-18,.cls-2{font-weight:700;}.cls-3{fill:#ffff3d;}.cls-4{letter-spacing:-0.03em;}.cls-5{letter-spacing:-0.01em;}.cls-6{font-size:11.2px;}.cls-19,.cls-6{font-family:GmarketSansMedium-KSCpc-EUC-H, Gmarket Sans;}.cls-7{letter-spacing:-0.02em;}.cls-8{fill:#ffb1cf;}.cls-10{fill:#073778;}.cls-11{fill:#44a7ff;}.cls-12{fill:#ffc500;}.cls-13{fill:#ea3914;}.cls-14{fill:#569aff;}.cls-15{fill:#75c12d;}.cls-16{fill:#a3a1ff;}.cls-17{font-size:10.63px;letter-spacing:0.02em;}.cls-19{letter-spacing:0.03em;}</style></defs><title>Artboard 24</title><rect class="cls-1" x="-0.5" y="0.5" width="450" height="120"/><text class="cls-2" transform="translate(24.67 67.21)">초간단! <tspan class="cls-3"><tspan x="0" y="29.31">M</tspan><tspan class="cls-4" x="23.88" y="29.31">B</tspan><tspan x="41.99" y="29.31">TI 테스트</tspan><tspan class="cls-5" x="143.59" y="29.31" xml:space="preserve"> 하러하기</tspan></tspan></text><text class="cls-6" transform="translate(24.67 30.6)">M<tspan class="cls-7" x="10.9" y="0">B</tspan><tspan x="19.34" y="0">TI가 처음인 당신에게!</tspan></text><circle class="cls-8" cx="313.83" cy="84.04" r="19.4"/><path class="cls-9" d="M324.86,81.29a1.06,1.06,0,0,0-.25,0c-1.55,0-2.8,1.75-2.8,3.92s1.25,3.92,2.8,3.92h.25a7.85,7.85,0,0,1,0-7.81Z"/><path class="cls-10" d="M327.41,85.19c0-2-1.12-3.72-2.55-3.9a7.85,7.85,0,0,0,0,7.81C326.29,88.92,327.41,87.24,327.41,85.19Z"/><path class="cls-9" d="M318.69,81.29a1.14,1.14,0,0,0-.26,0c-1.54,0-2.79,1.75-2.79,3.92s1.25,3.92,2.79,3.92h.26a7.79,7.79,0,0,1,0-7.81Z"/><path class="cls-10" d="M321.23,85.19c0-2-1.12-3.72-2.54-3.9a7.79,7.79,0,0,0,0,7.81C320.11,88.92,321.23,87.24,321.23,85.19Z"/><path class="cls-10" d="M321.32,88.83a1.74,1.74,0,0,1-.35,0,.16.16,0,1,1,.08-.32s.78.17.91-.38-.6-.77-.63-.77a.18.18,0,0,1-.12-.21.17.17,0,0,1,.21-.12c.37.11,1,.48.87,1.18a.86.86,0,0,1-.36.51A1.15,1.15,0,0,1,321.32,88.83Z"/><path class="cls-10" d="M320,79.82a.21.21,0,0,1-.12,0,1.3,1.3,0,0,0-1-.46,1.48,1.48,0,0,0-.91.44.16.16,0,0,1-.24,0,.16.16,0,0,1,0-.23,1.77,1.77,0,0,1,1.15-.55,1.64,1.64,0,0,1,1.21.56.17.17,0,0,1,0,.23A.15.15,0,0,1,320,79.82Z"/><path class="cls-10" d="M325.75,79.8a.13.13,0,0,1-.12,0,1.3,1.3,0,0,0-1-.45,1.44,1.44,0,0,0-.92.43.17.17,0,0,1-.24,0,.18.18,0,0,1,0-.24,1.77,1.77,0,0,1,1.16-.55,1.62,1.62,0,0,1,1.2.56.15.15,0,0,1,0,.23A.13.13,0,0,1,325.75,79.8Z"/><path class="cls-11" d="M314.45,67.12a23.75,23.75,0,0,1-6-.68c-1.87-.51-2.82-1.23-2.82-2.13s.95-1.63,2.82-2.14a26.68,26.68,0,0,1,12,0c1.88.51,2.83,1.23,2.83,2.14s-.95,1.62-2.83,2.13A23.61,23.61,0,0,1,314.45,67.12Zm0-4.52c-5.08,0-7.7,1.2-7.7,1.71s2.62,1.7,7.7,1.7,7.7-1.2,7.7-1.7S319.53,62.6,314.45,62.6Z"/><circle class="cls-9" cx="317.94" cy="85.4" r="1.04"/><circle class="cls-9" cx="324.06" cy="85.4" r="1.04"/><circle class="cls-12" cx="361.52" cy="84.04" r="19.4"/><path d="M372.57,81.2h-.26c-1.55,0-2.81,1.77-2.81,4s1.26,4,2.81,4l.26,0a7.83,7.83,0,0,1,0-7.87Z"/><path d="M375.13,85.14c0-2.06-1.13-3.75-2.56-3.94a7.83,7.83,0,0,0,0,7.87C374,88.89,375.13,87.2,375.13,85.14Z"/><path d="M366.35,81.2h-.26c-1.55,0-2.81,1.77-2.81,4s1.26,4,2.81,4l.26,0a7.83,7.83,0,0,1,0-7.87Z"/><path d="M368.91,85.14c0-2.06-1.13-3.75-2.56-3.94a7.83,7.83,0,0,0,0,7.87C367.78,88.89,368.91,87.2,368.91,85.14Z"/><path d="M369,87a.17.17,0,0,0-.13.07.17.17,0,0,0,0,.24l.72.55-.72.58a.18.18,0,0,0,0,.24.17.17,0,0,0,.24,0L370,88a.17.17,0,0,0,.07-.13.21.21,0,0,0-.07-.13l-.89-.68A.21.21,0,0,0,369,87Z"/><path d="M372.58,79.72a.19.19,0,0,0,.1,0l.93-.65a.16.16,0,0,0,.05-.23.17.17,0,0,0-.24,0l-.84.58-.89-.59a.18.18,0,0,0-.24,0,.16.16,0,0,0,.05.23l1,.65A.16.16,0,0,0,372.58,79.72Z"/><path d="M366.22,78.74a.16.16,0,0,0-.09,0l-.94.64a.16.16,0,0,0,0,.23.16.16,0,0,0,.23,0l.84-.58.9.58a.17.17,0,1,0,.18-.28l-1-.65Z"/><path d="M370.48,85.59c-1.4-.89-2.15-.06-2.18,0l-.21-.18a1.89,1.89,0,0,1,2.54,0Z"/><path class="cls-13" d="M361.31,72.13s-2.68-2.22,0-4.43a2.43,2.43,0,0,0,.93-2.56,4.84,4.84,0,0,1,2.45,4.07c0,1.64-1.87,2.92-1.87,2.92A7.06,7.06,0,0,0,368.18,67c1.17-4.43-3-6.47-4.08-7.57a4.63,4.63,0,0,1-1-3.85,7.3,7.3,0,0,0-3.27,8.74s-1.74-.93-1.51-2.56c0,0-2.68,3.14-1.75,6.17S360.26,72.24,361.31,72.13Z"/><circle class="cls-14" cx="407.33" cy="84.04" r="19.4"/><path class="cls-9" d="M418.36,81.29a1.14,1.14,0,0,0-.26,0c-1.54,0-2.79,1.75-2.79,3.92s1.25,3.92,2.79,3.92h.26a7.79,7.79,0,0,1,0-7.81Z"/><path class="cls-10" d="M420.9,85.19c0-2-1.12-3.72-2.54-3.9a7.79,7.79,0,0,0,0,7.81C419.78,88.92,420.9,87.24,420.9,85.19Z"/><path class="cls-9" d="M412.18,81.29a1.06,1.06,0,0,0-.25,0c-1.55,0-2.8,1.75-2.8,3.92s1.25,3.92,2.8,3.92h.25a7.79,7.79,0,0,1,0-7.81Z"/><path class="cls-10" d="M414.72,85.19c0-2-1.11-3.72-2.54-3.9a7.79,7.79,0,0,0,0,7.81C413.61,88.92,414.72,87.24,414.72,85.19Z"/><path class="cls-10" d="M414.82,88.83a1.74,1.74,0,0,1-.35,0,.17.17,0,0,1-.13-.2.16.16,0,0,1,.2-.12s.79.17.91-.38-.6-.77-.63-.77a.17.17,0,0,1,.09-.33c.37.11,1,.48.87,1.18a.81.81,0,0,1-.35.51A1.17,1.17,0,0,1,414.82,88.83Z"/><path class="cls-10" d="M413.51,79.82a.17.17,0,0,1-.12,0,1.32,1.32,0,0,0-1-.46,1.49,1.49,0,0,0-.92.44.15.15,0,0,1-.23,0,.16.16,0,0,1,0-.23,1.77,1.77,0,0,1,1.16-.55,1.66,1.66,0,0,1,1.21.56.16.16,0,0,1,0,.23A.13.13,0,0,1,413.51,79.82Z"/><path class="cls-10" d="M419.24,79.8a.15.15,0,0,1-.12,0,1.3,1.3,0,0,0-1-.45,1.48,1.48,0,0,0-.92.43.16.16,0,0,1-.23,0,.16.16,0,0,1,0-.24,1.77,1.77,0,0,1,1.15-.55,1.64,1.64,0,0,1,1.21.56.17.17,0,0,1,0,.23A.15.15,0,0,1,419.24,79.8Z"/><circle class="cls-9" cx="411.3" cy="85.4" r="1.04"/><circle class="cls-9" cx="417.41" cy="85.4" r="1.04"/><path class="cls-10" d="M404.15,62.65c-3.33-.27-9.12.65-12,6.42-1.51,3.05-.48,4.14,2.77,3.1C401.24,70.17,419.16,63.88,404.15,62.65Z"/><ellipse class="cls-10" cx="398.02" cy="63.62" rx="0.86" ry="0.72" transform="translate(2.33 140.4) rotate(-20.06)"/><path class="cls-9" d="M403.86,83c-.7-1.25-2.44.62-3.55-.63-1.38-1.56.56-2.5-.62-3.4a4.75,4.75,0,0,0-5.49.9c-4.25,4-2.54,8.13-.7,9.73s5.91,3.41,9.52-.73A5.52,5.52,0,0,0,403.86,83Z"/><circle class="cls-1" cx="396.14" cy="81.23" r="1.04"/><circle class="cls-12" cx="394.06" cy="84.43" r="1.04"/><circle class="cls-15" cx="395.31" cy="88.18" r="1.04"/><circle class="cls-16" cx="399.34" cy="89.02" r="1.04"/><circle class="cls-14" cx="401.98" cy="86.24" r="1.04"/><rect class="cls-9" x="294" y="17.63" width="129.19" height="29.41" rx="12.5" ry="12.5"/><path class="cls-9" d="M360.81,46.59,362,52.68a1.25,1.25,0,0,0,2.43.08l1.83-6.7a1.25,1.25,0,0,0-1.45-1.56l-3,.61A1.25,1.25,0,0,0,360.81,46.59Z"/><path class="cls-9" d="M311.22,44.55l-2.4,7.07a1.25,1.25,0,0,0,2.07,1.29l6.37-6.31Z"/><path class="cls-9" d="M410,44.55l2.4,7.07a1.25,1.25,0,0,1-2.07,1.29l-6.37-6.31Z"/><text class="cls-17" transform="translate(318.51 35.28)"><tspan class="cls-18">5초만에</tspan><tspan class="cls-19" x="38.86" y="0" xml:space="preserve"> 빠!르!게!</tspan></text></svg>