<svg id="Layer_1" data-name="Layer 1" xmlns="http://www.w3.org/2000/svg" viewBox="0 0 460 480"><defs><style>.cls-1{fill:#ff6d53;}.cls-2{fill:#fff;}.cls-18,.cls-3{fill:#073778;}.cls-4{fill:#fce11d;}.cls-5{fill:#eb3a00;}.cls-6{fill:#ffc500;}.cls-7{fill:#ea3914;}.cls-8{fill:#ffb1cf;}.cls-9{fill:#44a7ff;}.cls-10{fill:#00b5ac;}.cls-11{fill:#569aff;}.cls-12{fill:#75c12d;}.cls-13{fill:#a3a1ff;}.cls-14{fill:#c461db;}.cls-15{opacity:0.6;}.cls-16{fill:#779cea;}.cls-17{fill:#00c2d0;}.cls-18{font-size:15.57px;font-family:SDGdGulimTTF, Sandoll Gyeokdonggulim TTF;letter-spacing:-0.02em;}.cls-19{fill:#ff9f00;}.cls-20{fill:#ffef67;}.cls-21{fill:#7c98e7;}.cls-22{opacity:0.44;}.cls-23{fill:#ff4abe;}.cls-24{fill:#ff3c51;}</style></defs><title>Artboard 24</title><circle class="cls-1" cx="72.04" cy="96.71" r="43.44"/><path class="cls-2" d="M96.75,90.55a5.46,5.46,0,0,0-.57,0c-3.46,0-6.26,3.93-6.26,8.79s2.8,8.78,6.26,8.78a5.44,5.44,0,0,0,.57,0,17.46,17.46,0,0,1,0-17.5Z"/><path class="cls-3" d="M102.44,99.3c0-4.59-2.5-8.35-5.69-8.75a17.46,17.46,0,0,0,0,17.5C99.94,107.64,102.44,103.88,102.44,99.3Z"/><path class="cls-2" d="M82.91,90.55a5.1,5.1,0,0,0-.57,0c-3.46,0-6.26,3.93-6.26,8.79s2.8,8.78,6.26,8.78a5.17,5.17,0,0,0,.57,0,17.53,17.53,0,0,1,0-17.5Z"/><path class="cls-3" d="M88.61,99.3c0-4.59-2.51-8.35-5.7-8.75a17.53,17.53,0,0,0,0,17.5C86.1,107.64,88.61,103.88,88.61,99.3Z"/><path class="cls-3" d="M88.82,107.44a3.61,3.61,0,0,1-.79-.08.38.38,0,0,1-.28-.45.38.38,0,0,1,.45-.28c.07,0,1.76.4,2-.84s-1.34-1.71-1.41-1.73a.38.38,0,0,1,.19-.73c.84.23,2.31,1.07,2,2.63a1.74,1.74,0,0,1-.79,1.15A2.65,2.65,0,0,1,88.82,107.44Z"/><path class="cls-3" d="M85.88,87.27a.4.4,0,0,1-.27-.11,2.91,2.91,0,0,0-2.14-1,3.31,3.31,0,0,0-2.06,1,.37.37,0,0,1-.53,0,.37.37,0,0,1,0-.52,4,4,0,0,1,2.59-1.23,3.64,3.64,0,0,1,2.71,1.24.38.38,0,0,1,0,.53A.36.36,0,0,1,85.88,87.27Z"/><path class="cls-3" d="M98.72,87.23a.38.38,0,0,1-.26-.11,3,3,0,0,0-2.15-1,3.26,3.26,0,0,0-2.06,1,.36.36,0,0,1-.52,0,.37.37,0,0,1,0-.53,3.93,3.93,0,0,1,2.58-1.22A3.63,3.63,0,0,1,99,86.59a.39.39,0,0,1,0,.53A.4.4,0,0,1,98.72,87.23Z"/><path class="cls-4" d="M59.6,50.21c-1.67,3.48-2.81,5.88-2.8,5.9,6.08,4.86,24.07,4.86,30.74,0,.14-.11-1-2.56-2.62-6.06C78.13,52.94,66.24,53,59.6,50.21Z"/><path class="cls-3" d="M84.92,50.05c-4.39-9.27-12.75-25.9-12.75-25.9S64,41,59.6,50.21C66.24,53,78.13,52.94,84.92,50.05Z"/><path class="cls-4" d="M72.18,30.55a.78.78,0,0,1-.78-.78V19.28a.78.78,0,1,1,1.56,0V29.77A.78.78,0,0,1,72.18,30.55Z"/><path class="cls-4" d="M77.42,25.3H66.93a.77.77,0,0,1-.78-.77.78.78,0,0,1,.78-.78H77.42a.78.78,0,0,1,.78.78A.77.77,0,0,1,77.42,25.3Z"/><path class="cls-4" d="M75.89,29a.77.77,0,0,1-.55-.22l-7.42-7.42A.78.78,0,0,1,69,20.26l7.42,7.43a.78.78,0,0,1,0,1.1A.77.77,0,0,1,75.89,29Z"/><path class="cls-4" d="M68.47,29a.77.77,0,0,1-.55-1.32l7.42-7.43a.78.78,0,0,1,1.1,0,.8.8,0,0,1,0,1.11L69,28.79A.77.77,0,0,1,68.47,29Z"/><polygon class="cls-2" points="84.51 95.82 85.44 97.71 87.53 98.01 86.02 99.48 86.38 101.56 84.51 100.58 82.65 101.56 83 99.48 81.5 98.01 83.58 97.71 84.51 95.82"/><polygon class="cls-2" points="98.84 95.82 99.77 97.71 101.85 98.01 100.34 99.48 100.7 101.56 98.84 100.58 96.97 101.56 97.33 99.48 95.82 98.01 97.9 97.71 98.84 95.82"/><polygon class="cls-4" points="71.99 38.27 73.52 41.37 76.94 41.87 74.47 44.28 75.05 47.69 71.99 46.08 68.93 47.69 69.52 44.28 67.04 41.87 70.46 41.37 71.99 38.27"/><circle class="cls-5" cx="293.75" cy="206.32" r="43.44"/><path class="cls-2" d="M269,200a5.49,5.49,0,0,1,.58,0c3.48,0,6.3,4,6.3,8.84s-2.82,8.85-6.3,8.85a5.46,5.46,0,0,1-.58,0A17.56,17.56,0,0,0,269,200Z"/><path class="cls-3" d="M263.26,208.78c0-4.61,2.52-8.4,5.73-8.81a17.56,17.56,0,0,1,0,17.62C265.78,217.18,263.26,213.4,263.26,208.78Z"/><path class="cls-2" d="M282.92,200a5.44,5.44,0,0,1,.57,0c3.49,0,6.31,4,6.31,8.84s-2.82,8.85-6.31,8.85a5.46,5.46,0,0,1-.57,0,17.62,17.62,0,0,0,0-17.62Z"/><path class="cls-3" d="M277.19,208.78c0-4.61,2.52-8.4,5.73-8.81a17.62,17.62,0,0,1,0,17.62C279.71,217.18,277.19,213.4,277.19,208.78Z"/><path class="cls-3" d="M277.08,213.05a.36.36,0,0,1,.3.15.37.37,0,0,1-.07.53L275.7,215l1.62,1.31a.38.38,0,0,1-.47.59l-2-1.61a.37.37,0,0,1-.14-.3.36.36,0,0,1,.15-.29l2-1.53A.35.35,0,0,1,277.08,213.05Z"/><path class="cls-3" d="M283.09,196.64a.31.31,0,0,1-.21-.07l-2.1-1.44a.37.37,0,0,1,.42-.62l1.89,1.3,2-1.3a.37.37,0,0,1,.52.11.38.38,0,0,1-.11.52l-2.22,1.44A.36.36,0,0,1,283.09,196.64Z"/><path class="cls-3" d="M269,196.64a.33.33,0,0,1-.21-.07l-2.1-1.44a.38.38,0,1,1,.43-.62l1.89,1.3,2-1.3a.37.37,0,0,1,.52.11.38.38,0,0,1-.11.52l-2.21,1.44A.42.42,0,0,1,269,196.64Z"/><rect class="cls-5" x="259.48" y="198.94" width="35.19" height="7.47" transform="translate(554.14 405.36) rotate(-180)"/><circle class="cls-6" cx="293.75" cy="96.71" r="43.44"/><path d="M269,90.37a3.69,3.69,0,0,1,.58,0c3.48,0,6.3,4,6.3,8.85s-2.82,8.84-6.3,8.84a3.69,3.69,0,0,1-.58,0,17.54,17.54,0,0,0,0-17.61Z"/><path d="M263.26,99.18c0-4.62,2.52-8.4,5.73-8.81A17.54,17.54,0,0,1,269,108C265.78,107.58,263.26,103.79,263.26,99.18Z"/><path d="M282.92,90.37a3.64,3.64,0,0,1,.57,0c3.49,0,6.31,4,6.31,8.85S287,108,283.49,108a3.64,3.64,0,0,1-.57,0,17.61,17.61,0,0,0,0-17.61Z"/><path d="M277.19,99.18c0-4.62,2.52-8.4,5.73-8.81a17.61,17.61,0,0,1,0,17.61C279.71,107.58,277.19,103.79,277.19,99.18Z"/><path d="M277.08,103.45a.37.37,0,0,1,.3.14.37.37,0,0,1-.07.53l-1.61,1.24,1.62,1.31a.37.37,0,1,1-.47.58l-2-1.61a.37.37,0,0,1-.14-.3.38.38,0,0,1,.15-.29l2-1.53A.34.34,0,0,1,277.08,103.45Z"/><path d="M269,87a.4.4,0,0,1-.21-.07l-2.1-1.44a.39.39,0,0,1-.1-.53.38.38,0,0,1,.53-.09l1.89,1.3,2-1.31a.38.38,0,1,1,.41.63L269.17,87A.35.35,0,0,1,269,87Z"/><path d="M283.2,84.84a.36.36,0,0,1,.22.07l2.1,1.44a.38.38,0,0,1-.43.62l-1.89-1.3-2,1.3a.37.37,0,0,1-.52-.1.38.38,0,0,1,.11-.53L283,84.9A.36.36,0,0,1,283.2,84.84Z"/><path d="M273.66,100.19c3.14-2,4.82-.14,4.89-.06l.47-.41s-2.08-2.36-5.7-.06Z"/><path class="cls-7" d="M294.21,70s6-5,0-9.92a5.48,5.48,0,0,1-2.09-5.74s-5.48,2.87-5.48,9.13c0,3.66,4.18,6.53,4.18,6.53a15.84,15.84,0,0,1-12-11.49c-2.61-9.91,6.67-14.5,9.14-17C291.34,38.2,290.3,33,290.3,33s11.22,5.74,7.3,19.57c0,0,3.92-2.09,3.4-5.74,0,0,6,7,3.91,13.83S296.56,70.3,294.21,70Z"/><circle class="cls-8" cx="397.12" cy="206.32" r="43.44"/><path class="cls-2" d="M372.42,200.15a5.44,5.44,0,0,1,.57,0c3.46,0,6.26,3.93,6.26,8.78s-2.8,8.79-6.26,8.79a3.64,3.64,0,0,1-.57,0,17.53,17.53,0,0,0,0-17.5Z"/><path class="cls-3" d="M366.73,208.9c0-4.58,2.5-8.34,5.69-8.75a17.53,17.53,0,0,1,0,17.5C369.23,217.25,366.73,213.49,366.73,208.9Z"/><path class="cls-2" d="M386.25,200.15a5.44,5.44,0,0,1,.57,0c3.46,0,6.27,3.93,6.27,8.78s-2.81,8.79-6.27,8.79a3.64,3.64,0,0,1-.57,0,17.46,17.46,0,0,0,0-17.5Z"/><path class="cls-3" d="M380.56,208.9c0-4.58,2.5-8.34,5.69-8.75a17.46,17.46,0,0,1,0,17.5C383.06,217.25,380.56,213.49,380.56,208.9Z"/><path class="cls-3" d="M380.35,217.05a4.49,4.49,0,0,0,.79-.08.38.38,0,0,0-.18-.73c-.07,0-1.75.39-2-.84s1.35-1.72,1.42-1.74a.37.37,0,1,0-.2-.72c-.83.23-2.31,1.07-1.95,2.63a1.77,1.77,0,0,0,.8,1.14A2.57,2.57,0,0,0,380.35,217.05Z"/><path class="cls-3" d="M383.29,196.88a.35.35,0,0,0,.26-.12,3,3,0,0,1,2.15-1,3.26,3.26,0,0,1,2.06,1,.37.37,0,1,0,.55-.5,3.92,3.92,0,0,0-2.58-1.23,3.68,3.68,0,0,0-2.71,1.25.38.38,0,0,0,0,.53A.4.4,0,0,0,383.29,196.88Z"/><path class="cls-3" d="M370.44,196.83a.35.35,0,0,0,.27-.11,3,3,0,0,1,2.15-1,3.17,3.17,0,0,1,2.05,1,.39.39,0,0,0,.53,0,.38.38,0,0,0,0-.53,3.92,3.92,0,0,0-2.59-1.23,3.67,3.67,0,0,0-2.7,1.25.37.37,0,0,0,.26.63Z"/><path class="cls-9" d="M395.74,168.43a52.8,52.8,0,0,1-13.4-1.53c-4.2-1.15-6.33-2.76-6.33-4.78s2.13-3.63,6.33-4.78a59.87,59.87,0,0,1,26.81,0c4.2,1.15,6.33,2.76,6.33,4.78s-2.13,3.63-6.33,4.78A52.82,52.82,0,0,1,395.74,168.43Zm0-10.12c-11.38,0-17.24,2.67-17.24,3.81s5.86,3.82,17.24,3.82S413,163.26,413,162.12,407.12,158.31,395.74,158.31Z"/><circle class="cls-2" cx="387.92" cy="209.38" r="2.34"/><circle class="cls-2" cx="374.22" cy="209.38" r="2.34"/><circle class="cls-10" cx="396.19" cy="96.71" r="43.44"/><path class="cls-2" d="M371.44,90.37a3.64,3.64,0,0,1,.57,0c3.48,0,6.31,4,6.31,8.85S375.49,108,372,108a3.64,3.64,0,0,1-.57,0,17.61,17.61,0,0,0,0-17.61Z"/><path class="cls-3" d="M365.71,99.18c0-4.62,2.51-8.4,5.73-8.81a17.61,17.61,0,0,1,0,17.61C368.22,107.58,365.71,103.79,365.71,99.18Z"/><path class="cls-2" d="M385.36,90.37a3.69,3.69,0,0,1,.58,0c3.48,0,6.3,4,6.3,8.85s-2.82,8.84-6.3,8.84a3.69,3.69,0,0,1-.58,0,17.54,17.54,0,0,0,0-17.61Z"/><path class="cls-3" d="M379.63,99.18c0-4.62,2.52-8.4,5.73-8.81a17.54,17.54,0,0,1,0,17.61C382.15,107.58,379.63,103.79,379.63,99.18Z"/><path class="cls-3" d="M379.53,103.45a.41.41,0,0,1,.3.14.39.39,0,0,1-.07.53l-1.62,1.24,1.62,1.31a.37.37,0,0,1,.06.53.38.38,0,0,1-.53,0l-2-1.61a.37.37,0,0,1-.14-.3.38.38,0,0,1,.15-.29l2-1.53A.39.39,0,0,1,379.53,103.45Z"/><path class="cls-3" d="M371.52,84.84a.33.33,0,0,1,.21.07l2.1,1.44a.38.38,0,1,1-.43.62l-1.89-1.3-2,1.3a.37.37,0,0,1-.52-.1.39.39,0,0,1,.11-.53l2.21-1.44A.42.42,0,0,1,371.52,84.84Z"/><path class="cls-3" d="M385.65,84.84a.33.33,0,0,1,.21.07l2.1,1.44a.38.38,0,1,1-.43.62l-1.89-1.3-2,1.3a.37.37,0,0,1-.52-.1.39.39,0,0,1,.11-.53l2.21-1.44A.39.39,0,0,1,385.65,84.84Z"/><rect class="cls-10" x="361.92" y="89.34" width="35.19" height="7.47" transform="translate(759.03 186.15) rotate(-180)"/><rect class="cls-3" x="402.71" y="85.98" width="25.42" height="30.23" transform="translate(830.85 202.19) rotate(-180)"/><rect class="cls-2" x="404.72" y="84.44" width="25.08" height="29.77" transform="translate(834.52 198.65) rotate(-180)"/><path class="cls-3" d="M425.79,97.05H408.73a.24.24,0,0,1,0-.47h17.06a.24.24,0,0,1,0,.47Z"/><path class="cls-3" d="M425.79,100.56H408.73a.23.23,0,0,1-.23-.23.23.23,0,0,1,.23-.24h17.06a.23.23,0,0,1,.23.24A.23.23,0,0,1,425.79,100.56Z"/><path class="cls-3" d="M425.79,104.07H408.73a.23.23,0,0,1-.23-.23.23.23,0,0,1,.23-.24h17.06a.23.23,0,0,1,.23.24A.23.23,0,0,1,425.79,104.07Z"/><path class="cls-3" d="M425.79,107.58H408.73a.23.23,0,1,1,0-.46h17.06a.23.23,0,0,1,0,.46Z"/><path class="cls-3" d="M425.79,111.09H408.73a.23.23,0,1,1,0-.46h17.06a.23.23,0,1,1,0,.46Z"/><circle class="cls-11" cx="71.74" cy="198.85" r="43.44"/><path class="cls-2" d="M96.44,192.68a5.46,5.46,0,0,0-.57,0c-3.46,0-6.26,3.94-6.26,8.79s2.8,8.79,6.26,8.79a5.46,5.46,0,0,0,.57,0,17.46,17.46,0,0,1,0-17.5Z"/><path class="cls-3" d="M102.13,201.43c0-4.58-2.5-8.34-5.69-8.75a17.46,17.46,0,0,0,0,17.5C99.63,209.77,102.13,206,102.13,201.43Z"/><path class="cls-2" d="M82.61,192.68a5.46,5.46,0,0,0-.57,0c-3.46,0-6.27,3.94-6.27,8.79s2.81,8.79,6.27,8.79a5.46,5.46,0,0,0,.57,0,17.46,17.46,0,0,1,0-17.5Z"/><path class="cls-3" d="M88.3,201.43c0-4.58-2.5-8.34-5.69-8.75a17.46,17.46,0,0,0,0,17.5C85.8,209.77,88.3,206,88.3,201.43Z"/><path class="cls-3" d="M88.51,209.58a3.3,3.3,0,0,1-.79-.09.37.37,0,1,1,.17-.72c.08,0,1.76.39,2-.84s-1.35-1.72-1.42-1.74a.37.37,0,0,1-.26-.46.37.37,0,0,1,.46-.26c.83.22,2.31,1.06,2,2.62a1.79,1.79,0,0,1-.8,1.15A2.57,2.57,0,0,1,88.51,209.58Z"/><path class="cls-3" d="M85.57,189.4a.34.34,0,0,1-.26-.11,3,3,0,0,0-2.15-1,3.2,3.2,0,0,0-2.06,1,.38.38,0,0,1-.52,0,.37.37,0,0,1,0-.53,3.92,3.92,0,0,1,2.58-1.23,3.61,3.61,0,0,1,2.71,1.25.37.37,0,0,1,0,.52A.36.36,0,0,1,85.57,189.4Z"/><path class="cls-3" d="M98.42,189.36a.39.39,0,0,1-.27-.11,2.92,2.92,0,0,0-2.15-1,3.13,3.13,0,0,0-2,1,.38.38,0,0,1-.53,0,.36.36,0,0,1,0-.52A3.92,3.92,0,0,1,96,187.48a3.62,3.62,0,0,1,2.7,1.24.37.37,0,0,1,0,.53A.34.34,0,0,1,98.42,189.36Z"/><circle class="cls-2" cx="80.62" cy="201.9" r="2.34"/><circle class="cls-2" cx="94.32" cy="201.9" r="2.34"/><path class="cls-3" d="M64.61,151c-7.45-.61-20.42,1.45-26.79,14.37-3.38,6.84-1.07,9.28,6.22,7C58.11,167.78,98.25,153.7,64.61,151Z"/><ellipse class="cls-3" cx="50.89" cy="153.11" rx="1.94" ry="1.62" transform="translate(-49.43 26.75) rotate(-20.06)"/><path class="cls-2" d="M64,196.45c-1.56-2.8-5.45,1.4-7.94-1.4-3.1-3.49,1.25-5.6-1.4-7.63-5.29-2.8-10.12,0-12.3,2-9.5,8.87-5.68,18.21-1.56,21.79s13.24,7.63,21.33-1.63C64.12,207.29,66.61,201.82,64,196.45Z"/><circle class="cls-1" cx="46.68" cy="192.56" r="2.34"/><circle class="cls-6" cx="42.01" cy="199.72" r="2.34"/><circle class="cls-12" cx="44.81" cy="208.13" r="2.34"/><circle class="cls-13" cx="53.84" cy="210" r="2.34"/><circle class="cls-11" cx="59.76" cy="203.77" r="2.34"/><circle class="cls-12" cx="185.08" cy="202.61" r="43.44"/><path class="cls-2" d="M209.78,196.44a5.1,5.1,0,0,0-.57,0c-3.46,0-6.26,3.94-6.26,8.79s2.8,8.79,6.26,8.79a5.1,5.1,0,0,0,.57,0,17.53,17.53,0,0,1,0-17.5Z"/><path class="cls-3" d="M215.48,205.19c0-4.58-2.51-8.35-5.7-8.75a17.53,17.53,0,0,0,0,17.5C213,213.53,215.48,209.77,215.48,205.19Z"/><path class="cls-2" d="M196,196.44a5.46,5.46,0,0,0-.57,0c-3.46,0-6.26,3.94-6.26,8.79s2.8,8.79,6.26,8.79a5.46,5.46,0,0,0,.57,0,17.46,17.46,0,0,1,0-17.5Z"/><path class="cls-3" d="M201.64,205.19c0-4.58-2.5-8.35-5.69-8.75a17.46,17.46,0,0,0,0,17.5C199.14,213.53,201.64,209.77,201.64,205.19Z"/><path class="cls-3" d="M201.86,213.34a3.12,3.12,0,0,1-.79-.09.37.37,0,1,1,.17-.72c.07,0,1.76.39,2-.85s-1.35-1.71-1.42-1.73a.38.38,0,0,1-.26-.46.37.37,0,0,1,.46-.26c.83.22,2.31,1.06,1.95,2.62a1.75,1.75,0,0,1-.8,1.15A2.56,2.56,0,0,1,201.86,213.34Z"/><path class="cls-3" d="M207.44,192.92a.37.37,0,0,0,.29,0,2.94,2.94,0,0,1,2.37-.24,3.22,3.22,0,0,1,1.6,1.62.38.38,0,0,0,.49.21.37.37,0,0,0,.2-.49,3.92,3.92,0,0,0-2-2,3.63,3.63,0,0,0-3,.26.36.36,0,0,0-.18.49A.35.35,0,0,0,207.44,192.92Z"/><path class="cls-3" d="M194.05,192.92a.37.37,0,0,0,.29,0,2.94,2.94,0,0,1,2.37-.24,3.22,3.22,0,0,1,1.6,1.62.38.38,0,0,0,.49.21.37.37,0,0,0,.2-.49,3.92,3.92,0,0,0-2-2,3.63,3.63,0,0,0-3,.26.36.36,0,0,0-.18.49A.35.35,0,0,0,194.05,192.92Z"/><ellipse class="cls-2" cx="164.35" cy="172.4" rx="1.43" ry="2.14"/><ellipse class="cls-2" cx="161.55" cy="174.58" rx="1.43" ry="2.14" transform="translate(-54.4 274.27) rotate(-72)"/><ellipse class="cls-2" cx="162.51" cy="177.97" rx="2.14" ry="1.43" transform="translate(-76.99 204.84) rotate(-54)"/><ellipse class="cls-2" cx="166.07" cy="177.97" rx="1.43" ry="2.14" transform="translate(-72.89 131.6) rotate(-36)"/><ellipse class="cls-2" cx="167.17" cy="174.58" rx="2.14" ry="1.43" transform="translate(-45.77 60.2) rotate(-18)"/><circle class="cls-6" cx="164.26" cy="175.37" r="1.4"/><ellipse class="cls-2" cx="177.14" cy="176.82" rx="1.43" ry="2.14"/><ellipse class="cls-2" cx="174.34" cy="178.99" rx="1.43" ry="2.14" transform="translate(-49.76 289.49) rotate(-72)"/><ellipse class="cls-2" cx="175.3" cy="182.39" rx="2.14" ry="1.43" transform="translate(-75.29 217.01) rotate(-54)"/><ellipse class="cls-2" cx="178.87" cy="182.39" rx="1.43" ry="2.14" transform="translate(-73.04 139.97) rotate(-36)"/><ellipse class="cls-2" cx="179.96" cy="178.99" rx="2.14" ry="1.43" transform="translate(-46.5 64.37) rotate(-18)"/><circle class="cls-6" cx="177.05" cy="179.78" r="1.4"/><ellipse class="cls-2" cx="190.65" cy="177.19" rx="1.43" ry="2.14"/><ellipse class="cls-2" cx="187.85" cy="179.36" rx="1.43" ry="2.14" transform="translate(-40.78 302.59) rotate(-72)"/><ellipse class="cls-2" cx="188.81" cy="182.76" rx="2.14" ry="1.43" transform="translate(-70.03 228.08) rotate(-54)"/><ellipse class="cls-2" cx="192.37" cy="182.76" rx="1.43" ry="2.14" transform="translate(-70.68 147.98) rotate(-36)"/><ellipse class="cls-2" cx="193.47" cy="179.36" rx="2.14" ry="1.43" transform="translate(-45.96 68.56) rotate(-18)"/><circle class="cls-6" cx="190.56" cy="180.16" r="1.4"/><ellipse class="cls-2" cx="204.59" cy="171.2" rx="1.43" ry="2.14"/><ellipse class="cls-2" cx="201.78" cy="173.38" rx="1.43" ry="2.14" transform="translate(-25.46 311.71) rotate(-72)"/><ellipse class="cls-2" cx="202.75" cy="176.78" rx="2.14" ry="1.43" transform="matrix(0.59, -0.81, 0.81, 0.59, -59.44, 236.89)"/><ellipse class="cls-2" cx="206.31" cy="176.78" rx="1.43" ry="2.14" transform="translate(-64.5 155.03) rotate(-36)"/><ellipse class="cls-2" cx="207.4" cy="173.38" rx="2.14" ry="1.43" transform="translate(-43.43 72.58) rotate(-18)"/><circle class="cls-6" cx="204.5" cy="174.17" r="1.4"/><circle class="cls-14" cx="397.12" cy="418.06" r="43.44"/><path class="cls-2" d="M372.42,411.89a5.46,5.46,0,0,1,.57,0c3.46,0,6.26,3.94,6.26,8.79s-2.8,8.79-6.26,8.79a5.46,5.46,0,0,1-.57,0,17.53,17.53,0,0,0,0-17.5Z"/><path class="cls-3" d="M366.73,420.64c0-4.58,2.5-8.34,5.69-8.75a17.53,17.53,0,0,1,0,17.5C369.23,429,366.73,425.22,366.73,420.64Z"/><path class="cls-2" d="M386.25,411.89a5.46,5.46,0,0,1,.57,0c3.46,0,6.27,3.94,6.27,8.79s-2.81,8.79-6.27,8.79a5.46,5.46,0,0,1-.57,0,17.46,17.46,0,0,0,0-17.5Z"/><path class="cls-3" d="M380.56,420.64c0-4.58,2.5-8.34,5.69-8.75a17.46,17.46,0,0,1,0,17.5C383.06,429,380.56,425.22,380.56,420.64Z"/><path class="cls-3" d="M388.86,406.94h-4.67a.46.46,0,0,1-.47-.46.47.47,0,0,1,.47-.47h4.67a.46.46,0,0,1,.46.47A.45.45,0,0,1,388.86,406.94Z"/><path class="cls-3" d="M375.16,406.94h-4.67a.46.46,0,0,1-.47-.46.47.47,0,0,1,.47-.47h4.67a.47.47,0,0,1,.46.47A.46.46,0,0,1,375.16,406.94Z"/><path class="cls-14" d="M379.67,387s-8.72-2.18-10.9-8.1c0,0-3.42,3.74,1.87,12.77S379.67,387,379.67,387Z"/><path class="cls-14" d="M371,388s-8.72-2.18-10.9-8.09c0,0-3.42,3.73,1.87,12.76S371,388,371,388Z"/><g class="cls-15"><circle class="cls-2" cx="384.81" cy="427.41" r="4.52"/><path class="cls-3" d="M384.8,432.24a4.84,4.84,0,0,1-4.82-4.62h0a4.84,4.84,0,0,1,4.62-5,4.77,4.77,0,0,1,3.47,1.26,4.85,4.85,0,0,1,1.56,3.35,4.8,4.8,0,0,1-1.26,3.48,4.85,4.85,0,0,1-3.35,1.56Zm-4.2-4.64a4.21,4.21,0,0,0,7.31,2.66,4.22,4.22,0,0,0-.26-5.95,4.21,4.21,0,0,0-7,3.29Z"/><circle class="cls-2" cx="373.88" cy="427.89" r="4.52"/><path class="cls-3" d="M373.88,432.72a4.83,4.83,0,0,1-4.82-4.62h0a4.83,4.83,0,0,1,9.65-.42,4.82,4.82,0,0,1-1.27,3.47,4.77,4.77,0,0,1-3.35,1.56Zm-4.2-4.65a4.2,4.2,0,0,0,7.3,2.66,4.2,4.2,0,1,0-7.3-2.66Z"/><path class="cls-3" d="M377.53,428.42a.3.3,0,0,0,.19-.1,2.17,2.17,0,0,1,1.5-.91,2.45,2.45,0,0,1,1.59.56.26.26,0,0,0,.39,0,.27.27,0,0,0,0-.38,2.84,2.84,0,0,0-2-.71,2.69,2.69,0,0,0-1.9,1.11.27.27,0,0,0,0,.39A.25.25,0,0,0,377.53,428.42Z"/></g><path class="cls-3" d="M384.8,432.24a4.84,4.84,0,0,1-4.82-4.62h0a4.84,4.84,0,0,1,4.62-5,4.77,4.77,0,0,1,3.47,1.26,4.85,4.85,0,0,1,1.56,3.35,4.8,4.8,0,0,1-1.26,3.48,4.85,4.85,0,0,1-3.35,1.56Zm-4.2-4.64a4.21,4.21,0,0,0,7.31,2.66,4.22,4.22,0,0,0-.26-5.95,4.21,4.21,0,0,0-7,3.29Z"/><path class="cls-3" d="M373.88,432.72a4.83,4.83,0,0,1-4.82-4.62h0a4.83,4.83,0,0,1,9.65-.42,4.82,4.82,0,0,1-1.27,3.47,4.77,4.77,0,0,1-3.35,1.56Zm-4.2-4.65a4.2,4.2,0,0,0,7.3,2.66,4.2,4.2,0,1,0-7.3-2.66Z"/><path class="cls-3" d="M377.53,428.42a.3.3,0,0,0,.19-.1,2.17,2.17,0,0,1,1.5-.91,2.45,2.45,0,0,1,1.59.56.26.26,0,0,0,.39,0,.27.27,0,0,0,0-.38,2.84,2.84,0,0,0-2-.71,2.69,2.69,0,0,0-1.9,1.11.27.27,0,0,0,0,.39A.25.25,0,0,0,377.53,428.42Z"/><circle class="cls-16" cx="397.12" cy="309.39" r="43.44"/><path class="cls-2" d="M372.42,303.22a5.46,5.46,0,0,1,.57,0c3.46,0,6.26,3.94,6.26,8.79s-2.8,8.79-6.26,8.79a5.46,5.46,0,0,1-.57,0,17.53,17.53,0,0,0,0-17.5Z"/><path class="cls-3" d="M366.73,312c0-4.58,2.5-8.35,5.69-8.75a17.53,17.53,0,0,1,0,17.5C369.23,320.31,366.73,316.55,366.73,312Z"/><path class="cls-2" d="M386.25,303.22a5.46,5.46,0,0,1,.57,0c3.46,0,6.27,3.94,6.27,8.79s-2.81,8.79-6.27,8.79a5.46,5.46,0,0,1-.57,0,17.46,17.46,0,0,0,0-17.5Z"/><path class="cls-3" d="M380.56,312c0-4.58,2.5-8.35,5.69-8.75a17.46,17.46,0,0,1,0,17.5C383.06,320.31,380.56,316.55,380.56,312Z"/><path class="cls-3" d="M383.26,300a.39.39,0,0,0,.27-.11,3,3,0,0,1,2.17-1,3.28,3.28,0,0,1,2,1,.38.38,0,0,0,.52,0,.37.37,0,0,0,0-.53,3.91,3.91,0,0,0-2.56-1.28,3.62,3.62,0,0,0-2.73,1.19.37.37,0,0,0,0,.52A.35.35,0,0,0,383.26,300Z"/><path class="cls-3" d="M370.43,299.71a.37.37,0,0,0,.26-.1,3,3,0,0,1,2.17-1,3.24,3.24,0,0,1,2,1,.37.37,0,0,0,.53,0,.38.38,0,0,0,0-.52,4,4,0,0,0-2.56-1.29,3.69,3.69,0,0,0-2.74,1.19.38.38,0,0,0,0,.53A.36.36,0,0,0,370.43,299.71Z"/><path class="cls-3" d="M379.72,322a3.41,3.41,0,0,0,.79-.08.37.37,0,0,0,.28-.45.38.38,0,0,0-.45-.28c-.07,0-1.76.4-2-.84s1.35-1.71,1.42-1.73a.38.38,0,0,0-.2-.73c-.83.23-2.31,1.07-1.95,2.63a1.75,1.75,0,0,0,.8,1.15A2.62,2.62,0,0,0,379.72,322Z"/><path class="cls-2" d="M418,303.53l10.92,22.7a2,2,0,0,1-1.8,2.87H405.28a2,2,0,0,1-1.8-2.87l10.92-22.7A2,2,0,0,1,418,303.53Z"/><rect class="cls-2" x="411.51" y="295.09" width="9.38" height="18.76" rx="2" ry="2" transform="translate(832.4 608.95) rotate(180)"/><path class="cls-8" d="M425.72,325.23c.44.93.76,2-1.26,2H408c-2.12,0-1.7-1.07-1.26-2l4.41-9.15h10.19Z"/><path class="cls-3" d="M390.68,283.65c-1.39,0-5.68-1.95-7.68-5.71a.45.45,0,0,1,.19-.63.47.47,0,0,1,.63.19,11.22,11.22,0,0,0,6.45,5.18,21.14,21.14,0,0,1-1.69-2.83c-1.18-2.32-.91-2.57-.68-2.77.43-.39.94.12,1.13.31,1.17,1.17,5.63,3.25,7.47,3.8a11.66,11.66,0,0,1-2.65-4.6.48.48,0,0,1,.34-.57.47.47,0,0,1,.57.34h0a10.81,10.81,0,0,0,2.68,4.46,2.35,2.35,0,0,1,.39.49.63.63,0,0,1-.08.76c-.2.2-.63.62-4.53-1.17a27.58,27.58,0,0,1-4.22-2.33,20.22,20.22,0,0,0,2.24,3.84.77.77,0,0,1,.2.84.75.75,0,0,1-.72.4Zm-.11-.58Zm6.43-1.33Z"/><circle class="cls-17" cx="293.75" cy="309.39" r="43.44"/><path class="cls-2" d="M269,303a5.46,5.46,0,0,1,.58,0c3.48,0,6.3,4,6.3,8.85s-2.82,8.84-6.3,8.84a5.49,5.49,0,0,1-.58,0A17.56,17.56,0,0,0,269,303Z"/><path class="cls-3" d="M263.26,311.85c0-4.62,2.52-8.4,5.73-8.81a17.56,17.56,0,0,1,0,17.62C265.78,320.25,263.26,316.46,263.26,311.85Z"/><path class="cls-2" d="M282.92,303a5.46,5.46,0,0,1,.57,0c3.49,0,6.31,4,6.31,8.85s-2.82,8.84-6.31,8.84l-.57,0a17.62,17.62,0,0,0,0-17.62Z"/><path class="cls-3" d="M277.19,311.85c0-4.62,2.52-8.4,5.73-8.81a17.62,17.62,0,0,1,0,17.62C279.71,320.25,277.19,316.46,277.19,311.85Z"/><path class="cls-3" d="M277.08,316.12a.37.37,0,0,1,.23.67L275.7,318l1.62,1.31a.38.38,0,0,1,.06.53.37.37,0,0,1-.53.05l-2-1.61a.37.37,0,0,1-.14-.29.38.38,0,0,1,.15-.3l2-1.52A.3.3,0,0,1,277.08,316.12Z"/><path class="cls-3" d="M269.08,297.51a.35.35,0,0,1,.21.07l2.1,1.44a.37.37,0,0,1,.09.52.36.36,0,0,1-.52.1l-1.89-1.3-2,1.31a.38.38,0,0,1-.52-.11.36.36,0,0,1,.11-.52l2.21-1.45A.37.37,0,0,1,269.08,297.51Z"/><path class="cls-3" d="M283.2,297.51a.36.36,0,0,1,.22.07l2.1,1.44a.37.37,0,0,1,.09.52.36.36,0,0,1-.52.1l-1.89-1.3-2,1.31a.38.38,0,0,1-.52-.11.36.36,0,0,1,.11-.52l2.21-1.45A.36.36,0,0,1,283.2,297.51Z"/><text class="cls-18" transform="translate(271.31 289.08)">ㅋㅋㅋ</text><path class="cls-19" d="M185.08,262.23a43.41,43.41,0,0,0-35.86,18.92h71.72A43.41,43.41,0,0,0,185.08,262.23Z"/><path class="cls-19" d="M225.79,290.49H144.37a43.44,43.44,0,1,0,81.42,0Zm-18.57,6.59a3.92,3.92,0,0,1,2-2,3.66,3.66,0,0,1,3,.25.38.38,0,0,1,.17.5.36.36,0,0,1-.21.19.39.39,0,0,1-.28,0,2.91,2.91,0,0,0-2.37-.24,3.17,3.17,0,0,0-1.6,1.62.37.37,0,0,1-.49.2A.37.37,0,0,1,207.22,297.08Zm-13.39,0a4,4,0,0,1,2-2,3.66,3.66,0,0,1,3,.25.38.38,0,0,1,.17.5.36.36,0,0,1-.21.19.39.39,0,0,1-.28,0,2.91,2.91,0,0,0-2.37-.24,3.22,3.22,0,0,0-1.6,1.62.38.38,0,0,1-.7-.28ZM196,317a3.64,3.64,0,0,1-.57,0c-3.46,0-6.26-3.93-6.26-8.78s2.8-8.79,6.26-8.79a3.64,3.64,0,0,1,.57,0c3.19.4,5.69,4.16,5.69,8.75S199.14,316.6,196,317Zm8.06-2.08a1.78,1.78,0,0,1-.8,1.15,2.64,2.64,0,0,1-1.35.33,3.41,3.41,0,0,1-.79-.08.37.37,0,1,1,.17-.73c.07,0,1.76.39,2-.84s-1.35-1.72-1.42-1.74a.37.37,0,0,1-.26-.46.39.39,0,0,1,.46-.26C202.89,312.52,204.37,313.36,204,314.92Zm5.77,2.08a3.48,3.48,0,0,1-.57,0c-3.46,0-6.26-3.93-6.26-8.78s2.8-8.79,6.26-8.79a3.48,3.48,0,0,1,.57,0c3.19.4,5.7,4.16,5.7,8.75S213,316.6,209.78,317Z"/><path class="cls-2" d="M209.78,299.51a3.48,3.48,0,0,0-.57,0c-3.46,0-6.26,3.93-6.26,8.79s2.8,8.78,6.26,8.78a3.48,3.48,0,0,0,.57,0,17.51,17.51,0,0,1,0-17.49Z"/><path class="cls-3" d="M209.78,299.51a17.51,17.51,0,0,0,0,17.49c3.19-.4,5.7-4.16,5.7-8.74S213,299.91,209.78,299.51Z"/><path class="cls-2" d="M196,299.51a3.64,3.64,0,0,0-.57,0c-3.46,0-6.26,3.93-6.26,8.79s2.8,8.78,6.26,8.78a3.64,3.64,0,0,0,.57,0,17.45,17.45,0,0,1,0-17.49Z"/><path class="cls-3" d="M196,299.51A17.45,17.45,0,0,0,196,317c3.19-.4,5.69-4.16,5.69-8.74S199.14,299.91,196,299.51Z"/><path class="cls-3" d="M202.06,312.29a.39.39,0,0,0-.46.26.37.37,0,0,0,.26.46c.07,0,1.71.49,1.42,1.74s-2,.86-2,.84a.37.37,0,1,0-.17.73,3.41,3.41,0,0,0,.79.08,2.64,2.64,0,0,0,1.35-.33,1.78,1.78,0,0,0,.8-1.15C204.37,313.36,202.89,312.52,202.06,312.29Z"/><path class="cls-3" d="M194,297.56a.37.37,0,0,0,.49-.2,3.22,3.22,0,0,1,1.6-1.62,2.91,2.91,0,0,1,2.37.24.39.39,0,0,0,.28,0,.36.36,0,0,0,.21-.19.38.38,0,0,0-.17-.5,3.66,3.66,0,0,0-3-.25,4,4,0,0,0-2,2A.37.37,0,0,0,194,297.56Z"/><path class="cls-3" d="M207.43,297.56a.37.37,0,0,0,.49-.2,3.17,3.17,0,0,1,1.6-1.62,2.91,2.91,0,0,1,2.37.24.39.39,0,0,0,.28,0,.36.36,0,0,0,.21-.19.38.38,0,0,0-.17-.5,3.66,3.66,0,0,0-3-.25,3.92,3.92,0,0,0-2,2A.37.37,0,0,0,207.43,297.56Z"/><path class="cls-20" d="M220.94,281.15H149.22a42.89,42.89,0,0,0-4.85,9.34h81.42A42.89,42.89,0,0,0,220.94,281.15Z"/><rect class="cls-1" x="133.87" y="263.56" width="29.27" height="20.24" transform="translate(-31.05 19.29) rotate(-6.73)"/><path class="cls-3" d="M168.58,318.67a.46.46,0,0,1-.46-.41l-7.47-58.54a.47.47,0,0,1,.4-.52.46.46,0,0,1,.52.4l7.48,58.54a.48.48,0,0,1-.41.53Z"/><polygon class="cls-2" points="197.75 304.6 198.56 306.65 200.03 307.77 198.56 308.89 197.75 310.94 196.94 308.89 195.46 307.77 196.94 306.65 197.75 304.6"/><polygon class="cls-2" points="211.45 304.6 212.26 306.65 213.74 307.77 212.26 308.89 211.45 310.94 210.64 308.89 209.16 307.77 210.64 306.65 211.45 304.6"/><circle class="cls-21" cx="76.09" cy="411.83" r="43.44"/><path class="cls-2" d="M100.84,405.48a5.44,5.44,0,0,0-.57,0c-3.48,0-6.31,4-6.31,8.84s2.83,8.85,6.31,8.85a5.46,5.46,0,0,0,.57,0,17.62,17.62,0,0,1,0-17.62Z"/><path class="cls-3" d="M106.57,414.29c0-4.61-2.51-8.4-5.73-8.81a17.62,17.62,0,0,0,0,17.62C104.06,422.69,106.57,418.91,106.57,414.29Z"/><path class="cls-2" d="M86.92,405.48a5.49,5.49,0,0,0-.58,0c-3.48,0-6.3,4-6.3,8.84s2.82,8.85,6.3,8.85a5.46,5.46,0,0,0,.58,0,17.56,17.56,0,0,1,0-17.62Z"/><path class="cls-3" d="M92.65,414.29c0-4.61-2.52-8.4-5.73-8.81a17.56,17.56,0,0,0,0,17.62C90.13,422.69,92.65,418.91,92.65,414.29Z"/><path class="cls-3" d="M92.75,418.56a.38.38,0,0,0-.3.15.39.39,0,0,0,.07.53l1.62,1.23-1.62,1.31a.37.37,0,0,0-.06.53.38.38,0,0,0,.53.06l2-1.61a.37.37,0,0,0,.14-.3.36.36,0,0,0-.15-.29l-2-1.53A.4.4,0,0,0,92.75,418.56Z"/><path class="cls-3" d="M100.76,400a.4.4,0,0,0-.21.07l-2.1,1.44a.39.39,0,0,0-.1.53.38.38,0,0,0,.53.09l1.89-1.3,2,1.31a.38.38,0,0,0,.41-.63L101,400A.35.35,0,0,0,100.76,400Z"/><path class="cls-3" d="M86.63,400a.4.4,0,0,0-.21.07l-2.1,1.44a.39.39,0,0,0-.1.53.38.38,0,0,0,.53.09l1.89-1.3,2,1.31a.38.38,0,0,0,.41-.63L86.84,400A.33.33,0,0,0,86.63,400Z"/><rect class="cls-21" x="75.17" y="404.45" width="35.19" height="7.47"/><g class="cls-22"><circle class="cls-2" cx="75.23" cy="413.69" r="11.05"/><path class="cls-3" d="M75.25,425.06a11,11,0,0,1-1.89-.16,11.27,11.27,0,1,1,1.89.16Zm0-22.12A10.62,10.62,0,0,0,69,405a10.74,10.74,0,1,0,12.48,17.48h0A10.75,10.75,0,0,0,77,403.09,10.93,10.93,0,0,0,75.2,402.94Z"/></g><path class="cls-3" d="M75.25,425.06a11,11,0,0,1-1.89-.16,11.27,11.27,0,1,1,1.89.16Zm0-22.12A10.62,10.62,0,0,0,69,405a10.74,10.74,0,1,0,12.48,17.48h0A10.75,10.75,0,0,0,77,403.09,10.93,10.93,0,0,0,75.2,402.94Z"/><rect class="cls-3" x="54.95" y="418.15" width="3.74" height="17.75" rx="1.09" ry="1.09" transform="translate(371.34 132.66) rotate(54.48)"/><rect class="cls-3" x="63.47" y="419.13" width="1.56" height="4.98" transform="translate(370.06 124.35) rotate(54.48)"/><circle class="cls-6" cx="185.08" cy="414.34" r="43.44"/><path class="cls-2" d="M209.78,408.18a3.48,3.48,0,0,0-.57,0c-3.46,0-6.26,3.93-6.26,8.79s2.8,8.78,6.26,8.78a5.17,5.17,0,0,0,.57,0,17.53,17.53,0,0,1,0-17.5Z"/><path class="cls-3" d="M215.48,416.93c0-4.59-2.51-8.35-5.7-8.75a17.53,17.53,0,0,0,0,17.5C213,425.27,215.48,421.51,215.48,416.93Z"/><path class="cls-2" d="M196,408.18a3.64,3.64,0,0,0-.57,0c-3.46,0-6.26,3.93-6.26,8.79s2.8,8.78,6.26,8.78l.57,0a17.46,17.46,0,0,1,0-17.5Z"/><path class="cls-3" d="M201.64,416.93c0-4.59-2.5-8.35-5.69-8.75a17.46,17.46,0,0,0,0,17.5C199.14,425.27,201.64,421.51,201.64,416.93Z"/><path class="cls-3" d="M201.86,425.07a3.41,3.41,0,0,1-.79-.08.38.38,0,0,1-.28-.45.38.38,0,0,1,.45-.28c.07,0,1.76.39,2-.84s-1.35-1.72-1.42-1.73a.38.38,0,0,1,.2-.73c.83.23,2.31,1.07,1.95,2.63a1.75,1.75,0,0,1-.8,1.15A2.64,2.64,0,0,1,201.86,425.07Z"/><path class="cls-3" d="M207.07,404.5a.42.42,0,0,1,.29,0,2.92,2.92,0,0,0,2.36.24,3.26,3.26,0,0,0,1.61-1.62.37.37,0,0,1,.48-.21.38.38,0,0,1,.21.49,3.92,3.92,0,0,1-2,2,3.66,3.66,0,0,1-3-.25.38.38,0,0,1-.17-.5A.36.36,0,0,1,207.07,404.5Z"/><path class="cls-3" d="M193.68,404.5a.42.42,0,0,1,.29,0,2.94,2.94,0,0,0,2.37.24,3.27,3.27,0,0,0,1.6-1.62.37.37,0,0,1,.48-.21.38.38,0,0,1,.21.49,3.87,3.87,0,0,1-2,2,3.66,3.66,0,0,1-3-.25.38.38,0,0,1-.17-.5A.36.36,0,0,1,193.68,404.5Z"/><path class="cls-3" d="M192.64,388.89c-1.39,0-5.68-1.94-7.68-5.7a.45.45,0,0,1,.19-.63.46.46,0,0,1,.63.19,11.2,11.2,0,0,0,6.45,5.17,21.68,21.68,0,0,1-1.69-2.82c-1.18-2.32-.91-2.57-.68-2.77.43-.4.94.12,1.13.31,1.17,1.17,5.63,3.24,7.47,3.8a11.66,11.66,0,0,1-2.65-4.6.47.47,0,1,1,.91-.23h0a10.81,10.81,0,0,0,2.68,4.45,2.37,2.37,0,0,1,.39.5.62.62,0,0,1-.08.75c-.2.2-.63.63-4.53-1.16a28.46,28.46,0,0,1-4.22-2.33,20.22,20.22,0,0,0,2.24,3.84.77.77,0,0,1,.2.84.73.73,0,0,1-.72.39Zm-.11-.57ZM199,387Z"/><circle class="cls-2" cx="193.96" cy="418" r="2.34"/><circle class="cls-2" cx="207.97" cy="418" r="2.34"/><path class="cls-2" d="M196.61,436a2.49,2.49,0,0,1-5,0c0-1.37,1.76-5.22,2.49-5.22S196.61,434.65,196.61,436Z"/><path class="cls-10" d="M109.38,280.21H34.09a43.45,43.45,0,1,0,75.29,0Zm-16,11.56A3.92,3.92,0,0,1,96,290.54a3.67,3.67,0,0,1,2.7,1.25.37.37,0,0,1,0,.53.38.38,0,0,1-.26.11.39.39,0,0,1-.27-.11,3,3,0,0,0-2.15-1,3.18,3.18,0,0,0-2,1,.38.38,0,0,1-.56-.5Zm-12.84,0a3.93,3.93,0,0,1,2.58-1.22,3.63,3.63,0,0,1,2.71,1.24.39.39,0,0,1,0,.53.4.4,0,0,1-.27.11.38.38,0,0,1-.26-.11,2.93,2.93,0,0,0-2.15-1,3.26,3.26,0,0,0-2.06,1,.36.36,0,0,1-.52,0A.37.37,0,0,1,80.55,291.81Zm2.06,21.44-.57,0c-3.46,0-6.27-3.93-6.27-8.78s2.81-8.79,6.27-8.79a3.64,3.64,0,0,1,.57,0c3.19.4,5.69,4.16,5.69,8.75S85.8,312.84,82.61,313.25Zm8.06-2.09a1.81,1.81,0,0,1-.8,1.15,2.65,2.65,0,0,1-1.36.33,3.61,3.61,0,0,1-.79-.08.37.37,0,1,1,.17-.73c.08,0,1.76.39,2-.84s-1.35-1.72-1.42-1.73a.37.37,0,0,1-.26-.46.38.38,0,0,1,.46-.27C89.55,308.76,91,309.6,90.67,311.16Zm5.77,2.09-.57,0c-3.46,0-6.26-3.93-6.26-8.78s2.8-8.79,6.26-8.79a3.64,3.64,0,0,1,.57,0c3.19.4,5.69,4.16,5.69,8.75S99.63,312.84,96.44,313.25Z"/><path class="cls-2" d="M96.44,295.75a3.64,3.64,0,0,0-.57,0c-3.46,0-6.26,3.93-6.26,8.79s2.8,8.78,6.26,8.78l.57,0a17.46,17.46,0,0,1,0-17.5Z"/><path class="cls-3" d="M96.44,295.75a17.46,17.46,0,0,0,0,17.5c3.19-.41,5.69-4.17,5.69-8.75S99.63,296.15,96.44,295.75Z"/><path class="cls-2" d="M82.61,295.75a3.64,3.64,0,0,0-.57,0c-3.46,0-6.27,3.93-6.27,8.79s2.81,8.78,6.27,8.78l.57,0a17.46,17.46,0,0,1,0-17.5Z"/><path class="cls-3" d="M82.61,295.75a17.46,17.46,0,0,0,0,17.5c3.19-.41,5.69-4.17,5.69-8.75S85.8,296.15,82.61,295.75Z"/><path class="cls-3" d="M88.72,308.53a.38.38,0,0,0-.46.27.37.37,0,0,0,.26.46c.07,0,1.7.48,1.42,1.73s-2,.86-2,.84a.37.37,0,1,0-.17.73,3.61,3.61,0,0,0,.79.08,2.65,2.65,0,0,0,1.36-.33,1.81,1.81,0,0,0,.8-1.15C91,309.6,89.55,308.76,88.72,308.53Z"/><path class="cls-3" d="M81.1,292.31a3.26,3.26,0,0,1,2.06-1,2.93,2.93,0,0,1,2.15,1,.38.38,0,0,0,.26.11.4.4,0,0,0,.27-.11.39.39,0,0,0,0-.53,3.63,3.63,0,0,0-2.71-1.24,3.93,3.93,0,0,0-2.58,1.22.37.37,0,0,0,0,.53A.36.36,0,0,0,81.1,292.31Z"/><path class="cls-3" d="M94,292.27a3.18,3.18,0,0,1,2-1,3,3,0,0,1,2.15,1,.39.39,0,0,0,.27.11.38.38,0,0,0,.26-.11.37.37,0,0,0,0-.53,3.67,3.67,0,0,0-2.7-1.25,3.92,3.92,0,0,0-2.59,1.23.38.38,0,0,0,.56.5Z"/><path class="cls-3" d="M71.74,258.47a43.45,43.45,0,0,0-37.65,21.74h75.29A43.44,43.44,0,0,0,71.74,258.47Z"/><circle class="cls-2" cx="80.62" cy="304.97" r="2.34"/><circle class="cls-2" cx="94.32" cy="304.97" r="2.34"/><path class="cls-2" d="M58.3,291.78l-1.38,3.89-3.07.92h0L52,293.82l1.38-3.89s-4.54-.38-5.25,4a5.82,5.82,0,0,0,2.67,6.19l-6.44,15.45s-1,2.13.73,3.31c.17.06.22.17.38.23a2.59,2.59,0,0,0,3.67-1.75l4.74-16a5.8,5.8,0,0,0,6-3.12C62.06,294.35,58.3,291.78,58.3,291.78ZM47.08,317.53a.89.89,0,1,1-.77-1.6.89.89,0,1,1,.77,1.6Z"/><path class="cls-3" d="M34.69,280s-4.36-10-15.26-3.92C19.43,276,22.92,283.89,34.69,280Z"/><path class="cls-3" d="M34.48,280.18s-9-6.14-15,4.85C19.49,285,26.63,289.79,34.48,280.18Z"/><circle class="cls-23" cx="177.91" cy="96.71" r="43.44"/><path class="cls-2" d="M202.66,90.37a3.64,3.64,0,0,0-.57,0c-3.48,0-6.31,4-6.31,8.85s2.83,8.84,6.31,8.84a3.64,3.64,0,0,0,.57,0,17.61,17.61,0,0,1,0-17.61Z"/><path class="cls-3" d="M208.39,99.18c0-4.62-2.51-8.4-5.73-8.81a17.61,17.61,0,0,0,0,17.61C205.88,107.58,208.39,103.79,208.39,99.18Z"/><path class="cls-2" d="M188.74,90.37a3.69,3.69,0,0,0-.58,0c-3.48,0-6.3,4-6.3,8.85s2.82,8.84,6.3,8.84a3.69,3.69,0,0,0,.58,0,17.61,17.61,0,0,1,0-17.61Z"/><path class="cls-3" d="M194.47,99.18c0-4.62-2.52-8.4-5.73-8.81a17.61,17.61,0,0,0,0,17.61C192,107.58,194.47,103.79,194.47,99.18Z"/><polygon class="cls-2" points="204.23 99.1 199.04 102.09 199.04 96.11 204.23 99.1"/><polygon class="cls-2" points="190.11 99.1 184.93 102.09 184.93 96.11 190.11 99.1"/><path class="cls-3" d="M194.57,103.45a.41.41,0,0,0-.3.14.39.39,0,0,0,.07.53l1.62,1.24-1.62,1.31a.37.37,0,1,0,.47.58l2-1.61a.37.37,0,0,0,.14-.3.38.38,0,0,0-.15-.29l-2-1.53A.39.39,0,0,0,194.57,103.45Z"/><path class="cls-3" d="M202.58,84.84a.33.33,0,0,0-.21.07l-2.1,1.44a.38.38,0,1,0,.43.62l1.89-1.3,2,1.3a.37.37,0,0,0,.52-.1.39.39,0,0,0-.11-.53l-2.21-1.44A.42.42,0,0,0,202.58,84.84Z"/><path class="cls-3" d="M188.45,84.84a.33.33,0,0,0-.21.07l-2.1,1.44a.38.38,0,0,0,.43.62l1.89-1.3,2,1.3a.37.37,0,0,0,.52-.1.39.39,0,0,0-.11-.53l-2.21-1.44A.39.39,0,0,0,188.45,84.84Z"/><path class="cls-3" d="M215.34,110.6a.49.49,0,0,1-.32-.12.47.47,0,0,1,0-.66A50.59,50.59,0,0,0,227.73,75.1a.47.47,0,0,1,.93-.08,51.43,51.43,0,0,1-13,35.42A.43.43,0,0,1,215.34,110.6Z"/><ellipse class="cls-23" cx="229.39" cy="65.48" rx="13.98" ry="12.42" transform="translate(134.05 284.15) rotate(-82.37)"/><path class="cls-23" d="M227.6,78.5,226.46,80a.77.77,0,0,0,.5,1.23l1.86.24a.76.76,0,0,0,.81-1l-.72-1.73A.76.76,0,0,0,227.6,78.5Z"/><path class="cls-23" d="M175.75,53.53s8.71-2.18,10.89-8.1c0,0,3.43,3.74-1.86,12.77S175.75,53.53,175.75,53.53Z"/><path class="cls-23" d="M184.46,54.46s8.72-2.18,10.9-8.09c0,0,3.43,3.73-1.87,12.76S184.46,54.46,184.46,54.46Z"/><path class="cls-23" d="M193.18,56.64s8.72-2.18,10.9-8.09c0,0,3.43,3.73-1.87,12.76S193.18,56.64,193.18,56.64Z"/><path class="cls-2" d="M237.71,67.39h0a.45.45,0,0,1-.42-.5c.58-7.36-2.27-9.52-2.3-9.54a.47.47,0,0,1-.11-.65.48.48,0,0,1,.65-.12c.13.1,3.32,2.43,2.69,10.39A.48.48,0,0,1,237.71,67.39Z"/><circle class="cls-2" cx="236.93" cy="70.19" r="0.62"/><circle class="cls-8" cx="293.75" cy="418.06" r="43.44"/><path class="cls-2" d="M269,411.71a5.46,5.46,0,0,1,.58,0c3.48,0,6.3,4,6.3,8.85s-2.82,8.84-6.3,8.84a5.49,5.49,0,0,1-.58,0,17.56,17.56,0,0,0,0-17.62Z"/><path class="cls-3" d="M263.26,420.52c0-4.62,2.52-8.4,5.73-8.81a17.56,17.56,0,0,1,0,17.62C265.78,428.92,263.26,425.13,263.26,420.52Z"/><path class="cls-2" d="M282.92,411.71a5.46,5.46,0,0,1,.57,0c3.49,0,6.31,4,6.31,8.85s-2.82,8.84-6.31,8.84a5.44,5.44,0,0,1-.57,0,17.62,17.62,0,0,0,0-17.62Z"/><path class="cls-3" d="M277.19,420.52c0-4.62,2.52-8.4,5.73-8.81a17.62,17.62,0,0,1,0,17.62C279.71,428.92,277.19,425.13,277.19,420.52Z"/><path class="cls-3" d="M277.08,424.79a.36.36,0,0,1,.3.15.37.37,0,0,1-.07.53l-1.61,1.23,1.62,1.31a.38.38,0,1,1-.47.59l-2-1.61a.41.41,0,0,1-.14-.3.38.38,0,0,1,.15-.3l2-1.52A.3.3,0,0,1,277.08,424.79Z"/><path class="cls-3" d="M269.08,406.18a.35.35,0,0,1,.21.07l2.1,1.44a.38.38,0,0,1,.09.53.37.37,0,0,1-.52.09l-1.89-1.3-2,1.31a.38.38,0,0,1-.52-.11.36.36,0,0,1,.11-.52l2.21-1.45A.37.37,0,0,1,269.08,406.18Z"/><path class="cls-3" d="M283.2,406.18a.36.36,0,0,1,.22.07l2.1,1.44a.38.38,0,0,1,.09.53.37.37,0,0,1-.52.09L283.2,407l-2,1.31a.38.38,0,0,1-.52-.11.36.36,0,0,1,.11-.52l2.21-1.45A.36.36,0,0,1,283.2,406.18Z"/><path class="cls-24" d="M305.92,413.24c1.94-2.19,5.5-1.85,8.59.59,3.09-2.44,6.66-2.78,8.59-.59,2.31,2.62,1.44,7.84-1.94,11.67a11.78,11.78,0,0,1-3.88,3,7.13,7.13,0,0,1-2.77,1.18,5.78,5.78,0,0,1-2.77-1.18,11.78,11.78,0,0,1-3.88-3C304.48,421.08,303.61,415.86,305.92,413.24Z"/><path class="cls-24" d="M284.11,397a12.7,12.7,0,0,1-2.65-.29,8.28,8.28,0,0,1-4.92-2.7c-3,1.57-7,2.55-10,2.08a.61.61,0,0,1-.51-.71.62.62,0,0,1,.71-.52c2.77.44,6.45-.52,9.12-1.9a5.46,5.46,0,0,1-.52-1.57,4.07,4.07,0,0,1,1.55-4.16,2.24,2.24,0,0,1,2.6.28,2.49,2.49,0,0,1,.86,3.12,7,7,0,0,1-2.71,2.74,7.27,7.27,0,0,0,4.08,2.12c3.73.8,6.46-.34,8.1-2-2-1.7-2.34-3.29-2.3-4.2a2.89,2.89,0,0,1,1.7-2.59,2.56,2.56,0,0,1,2.74.48c1.18,1,1.29,3.07.28,5.08a7.14,7.14,0,0,1-.61,1,13,13,0,0,0,1.15.68c4.35,2.32,9.06.31,9.11.29a.62.62,0,1,1,.5,1.14c-.22.1-5.32,2.27-10.2-.33-.5-.27-1-.54-1.36-.81A9.14,9.14,0,0,1,284.11,397Zm6.1-9.22a1.25,1.25,0,0,0-.5.11,1.64,1.64,0,0,0-.95,1.49c0,.55.16,1.77,1.87,3.2a7.42,7.42,0,0,0,.5-.84c.74-1.47.74-2.94,0-3.58A1.41,1.41,0,0,0,290.21,387.73Zm-12.24.4a.81.81,0,0,0-.45.13,2.89,2.89,0,0,0-.95,2.89,4.33,4.33,0,0,0,.37,1.14,5.85,5.85,0,0,0,2.27-2.21,1.25,1.25,0,0,0-.5-1.64A1.2,1.2,0,0,0,278,388.13Z"/></svg>