<svg id="Layer_1" data-name="Layer 1" xmlns="http://www.w3.org/2000/svg" viewBox="0 0 280 280"><defs><style>.cls-1{fill:#ff9f00;}.cls-2{fill:#fff;}.cls-3{fill:#073778;}.cls-4{fill:#ffef67;}.cls-5{fill:#ff6d53;}</style></defs><title>Artboard 25 copy 3</title><path class="cls-1" d="M148.39,60.6A82.17,82.17,0,0,0,80.47,96.43H216.3A82.16,82.16,0,0,0,148.39,60.6Z"/><path class="cls-1" d="M225.49,114.12H71.28a82.28,82.28,0,1,0,154.21,0ZM190.32,126.6a7.42,7.42,0,0,1,3.82-3.85,6.89,6.89,0,0,1,5.62.48.71.71,0,0,1,.34,1,.74.74,0,0,1-.4.36.75.75,0,0,1-.55,0,5.54,5.54,0,0,0-4.48-.45,6.13,6.13,0,0,0-3,3.07.71.71,0,0,1-1.31-.53Zm-25.36,0a7.42,7.42,0,0,1,3.82-3.85,6.91,6.91,0,0,1,5.63.48.71.71,0,0,1-.07,1.31.72.72,0,0,1-.54,0,5.57,5.57,0,0,0-4.49-.45,6.09,6.09,0,0,0-3,3.07.72.72,0,0,1-.93.39A.72.72,0,0,1,165,126.6Zm4,37.73a7.62,7.62,0,0,1-1.08.08c-6.55,0-11.86-7.45-11.86-16.64s5.31-16.65,11.86-16.65a7.62,7.62,0,0,1,1.08.08c6.05.76,10.78,7.88,10.78,16.57S175,163.57,169,164.33Zm15.27-4a3.36,3.36,0,0,1-1.51,2.18,4.94,4.94,0,0,1-2.57.63,7.5,7.5,0,0,1-1.5-.15.71.71,0,0,1,.33-1.38c.13,0,3.33.74,3.87-1.59s-2.56-3.26-2.69-3.29a.72.72,0,0,1-.49-.87.71.71,0,0,1,.87-.5C182.12,155.84,184.92,157.43,184.24,160.38Zm10.93,4a7.62,7.62,0,0,1-1.08.08c-6.55,0-11.86-7.45-11.86-16.64s5.31-16.65,11.86-16.65a7.62,7.62,0,0,1,1.08.08c6.05.76,10.79,7.88,10.79,16.57S201.22,163.57,195.17,164.33Z"/><path class="cls-2" d="M195.17,131.2a7.62,7.62,0,0,0-1.08-.08c-6.55,0-11.86,7.45-11.86,16.65s5.31,16.64,11.86,16.64a7.62,7.62,0,0,0,1.08-.08c-2.7-3.89-4.44-9.86-4.44-16.56S192.47,135.09,195.17,131.2Z"/><path class="cls-3" d="M195.17,131.2c-2.7,3.89-4.44,9.86-4.44,16.57s1.74,12.67,4.44,16.56c6.05-.76,10.79-7.88,10.79-16.56S201.22,132,195.17,131.2Z"/><path class="cls-2" d="M169,131.2a7.62,7.62,0,0,0-1.08-.08c-6.55,0-11.86,7.45-11.86,16.65s5.31,16.64,11.86,16.64a7.62,7.62,0,0,0,1.08-.08c-2.71-3.89-4.44-9.86-4.44-16.56S166.26,135.09,169,131.2Z"/><path class="cls-3" d="M169,131.2c-2.71,3.89-4.44,9.86-4.44,16.57s1.73,12.67,4.44,16.56c6.05-.76,10.78-7.88,10.78-16.56S175,132,169,131.2Z"/><path class="cls-3" d="M180.55,155.41a.71.71,0,0,0-.87.5.72.72,0,0,0,.49.87c.13,0,3.23.92,2.69,3.29s-3.74,1.62-3.87,1.59a.71.71,0,0,0-.33,1.38,7.5,7.5,0,0,0,1.5.15,4.94,4.94,0,0,0,2.57-.63,3.36,3.36,0,0,0,1.51-2.18C184.92,157.43,182.12,155.84,180.55,155.41Z"/><path class="cls-3" d="M165.35,127.52a.72.72,0,0,0,.93-.39,6.09,6.09,0,0,1,3-3.07,5.57,5.57,0,0,1,4.49.45.72.72,0,0,0,.54,0,.71.71,0,0,0,.07-1.31,6.91,6.91,0,0,0-5.63-.48A7.42,7.42,0,0,0,165,126.6.72.72,0,0,0,165.35,127.52Z"/><path class="cls-3" d="M190.71,127.52a.71.71,0,0,0,.92-.39,6.13,6.13,0,0,1,3-3.07,5.54,5.54,0,0,1,4.48.45.75.75,0,0,0,.55,0,.74.74,0,0,0,.4-.36.71.71,0,0,0-.34-1,6.89,6.89,0,0,0-5.62-.48,7.42,7.42,0,0,0-3.82,3.85A.72.72,0,0,0,190.71,127.52Z"/><path class="cls-4" d="M216.3,96.43H80.47a82,82,0,0,0-9.19,17.69H225.49A82,82,0,0,0,216.3,96.43Z"/><rect class="cls-5" x="51.39" y="63.11" width="55.43" height="38.33" transform="translate(-9.1 9.84) rotate(-6.73)"/><path class="cls-3" d="M117.15,167.49a.89.89,0,0,1-.88-.78L102.12,55.85a.87.87,0,0,1,.76-1,.89.89,0,0,1,1,.76L118,166.49a.87.87,0,0,1-.76,1Z"/><polygon class="cls-2" points="172.38 140.84 173.91 144.72 176.71 146.85 173.91 148.97 172.38 152.85 170.85 148.97 168.05 146.85 170.85 144.72 172.38 140.84"/><polygon class="cls-2" points="198.33 140.84 199.86 144.72 202.66 146.85 199.86 148.97 198.33 152.85 196.8 148.97 194 146.85 196.8 144.72 198.33 140.84"/></svg>