<svg id="Layer_1" data-name="Layer 1" xmlns="http://www.w3.org/2000/svg" viewBox="0 0 280 280"><defs><style>.cls-1{fill:#ff4abe;}.cls-2{fill:#fff;}.cls-3{fill:#073778;}</style></defs><title>Artboard 25 copy 11</title><circle class="cls-1" cx="120.59" cy="147.42" r="82.28"/><path class="cls-2" d="M167.47,135.4a9.81,9.81,0,0,0-1.09-.07c-6.59,0-11.94,7.5-11.94,16.75s5.35,16.76,11.94,16.76a7.88,7.88,0,0,0,1.09-.08c-2.73-3.92-4.47-9.93-4.47-16.68S164.74,139.32,167.47,135.4Z"/><path class="cls-3" d="M178.32,152.08c0-8.73-4.77-15.91-10.85-16.68-2.73,3.92-4.47,9.94-4.47,16.68s1.74,12.76,4.47,16.68C173.55,168,178.32,160.82,178.32,152.08Z"/><path class="cls-2" d="M141.09,135.4a9.79,9.79,0,0,0-1.08-.07c-6.6,0-11.94,7.5-11.94,16.75s5.34,16.76,11.94,16.76a7.85,7.85,0,0,0,1.08-.08c-2.72-3.92-4.47-9.93-4.47-16.68S138.37,139.32,141.09,135.4Z"/><path class="cls-3" d="M152,152.08c0-8.73-4.77-15.91-10.86-16.68-2.72,3.92-4.47,9.94-4.47,16.68s1.75,12.76,4.47,16.68C147.18,168,152,160.82,152,152.08Z"/><polygon class="cls-2" points="170.43 151.94 160.61 157.6 160.61 146.27 170.43 151.94"/><polygon class="cls-2" points="143.7 151.94 133.88 157.6 133.88 146.27 143.7 151.94"/><path class="cls-3" d="M152.15,160.17a.71.71,0,0,0-.44,1.28l3.07,2.34-3.08,2.48a.71.71,0,1,0,.89,1.11l3.79-3a.72.72,0,0,0,0-1.12l-3.78-2.89A.7.7,0,0,0,152.15,160.17Z"/><path class="cls-3" d="M167.31,124.93a.66.66,0,0,0-.4.13l-4,2.73a.71.71,0,1,0,.8,1.18l3.58-2.47,3.79,2.48a.72.72,0,0,0,.78-1.2l-4.19-2.73A.69.69,0,0,0,167.31,124.93Z"/><path class="cls-3" d="M140.56,124.93a.67.67,0,0,0-.41.13l-4,2.73a.7.7,0,0,0-.18,1,.71.71,0,0,0,1,.19l3.58-2.47,3.79,2.48a.72.72,0,0,0,.78-1.2L141,125.05A.71.71,0,0,0,140.56,124.93Z"/><path class="cls-3" d="M191.47,173.72a.89.89,0,0,1-.59-.23.89.89,0,0,1-.06-1.25c26.7-29.49,24.15-65.4,24.12-65.76a.88.88,0,0,1,1.76-.14c0,.37,2.67,37-24.57,67.09A.91.91,0,0,1,191.47,173.72Z"/><ellipse class="cls-1" cx="218.09" cy="88.26" rx="26.49" ry="23.53" transform="matrix(0.13, -0.99, 0.99, 0.13, 101.67, 292.71)"/><path class="cls-1" d="M215.42,112l-3.6,4.68a.76.76,0,0,0,.5,1.22l5.86.79a.76.76,0,0,0,.8-1.05l-2.25-5.46A.76.76,0,0,0,215.42,112Z"/><path class="cls-1" d="M116.49,65.63S133,61.51,137.13,50.3c0,0,6.49,7.08-3.54,24.18S116.49,65.63,116.49,65.63Z"/><path class="cls-1" d="M133,67.4s16.51-4.12,20.64-15.33c0,0,6.49,7.08-3.54,24.18S133,67.4,133,67.4Z"/><path class="cls-1" d="M149.51,71.53S166,67.4,170.16,56.2c0,0,6.48,7.08-3.54,24.18S149.51,71.53,149.51,71.53Z"/><path class="cls-2" d="M233.85,91.88h-.08a.88.88,0,0,1-.81-1c1.12-13.94-4.29-18-4.35-18.08a.88.88,0,0,1,1-1.44c.26.18,6.3,4.59,5.1,19.66A.89.89,0,0,1,233.85,91.88Z"/><circle class="cls-2" cx="231.73" cy="98.89" r="1.18"/></svg>