<svg id="Layer_1" data-name="Layer 1" xmlns="http://www.w3.org/2000/svg" viewBox="0 0 280 280"><defs><style>.cls-1{fill:#00c2d0;}.cls-2{fill:#fff;}.cls-3,.cls-4{fill:#073778;}.cls-4{font-size:29.5px;font-family:SDGdGulimTTF, Sandoll Gyeokdonggulim TTF;letter-spacing:-0.03em;}</style></defs><title>Artboard 25 copy 5</title><circle class="cls-1" cx="140" cy="140" r="82.28"/><path class="cls-2" d="M186.88,128a9.81,9.81,0,0,0-1.09-.07c-6.59,0-11.94,7.5-11.94,16.75s5.35,16.75,11.94,16.75a7.88,7.88,0,0,0,1.09-.07c-2.73-3.92-4.48-9.93-4.48-16.68S184.15,131.9,186.88,128Z"/><path class="cls-3" d="M197.73,144.66c0-8.74-4.77-15.91-10.85-16.68-2.73,3.92-4.48,9.94-4.48,16.68s1.75,12.76,4.48,16.68C193,160.57,197.73,153.4,197.73,144.66Z"/><path class="cls-2" d="M160.5,128a9.81,9.81,0,0,0-1.09-.07c-6.59,0-11.94,7.5-11.94,16.75s5.35,16.75,11.94,16.75a7.88,7.88,0,0,0,1.09-.07c-2.73-3.92-4.47-9.93-4.47-16.68S157.77,131.9,160.5,128Z"/><path class="cls-3" d="M171.35,144.66c0-8.74-4.77-15.91-10.85-16.68-2.73,3.92-4.47,9.94-4.47,16.68s1.74,12.76,4.47,16.68C166.58,160.57,171.35,153.4,171.35,144.66Z"/><path class="cls-3" d="M171.55,152.75a.71.71,0,0,0-.43,1.28l3.06,2.34-3.07,2.48A.71.71,0,0,0,172,160l3.79-3.05a.7.7,0,0,0,.26-.56.69.69,0,0,0-.28-.56L172,152.9A.71.71,0,0,0,171.55,152.75Z"/><path class="cls-3" d="M186.72,117.51a.66.66,0,0,0-.4.13l-4,2.73a.72.72,0,0,0-.18,1,.7.7,0,0,0,1,.18l3.58-2.46,3.79,2.47a.71.71,0,0,0,1-.2.72.72,0,0,0-.21-1l-4.19-2.73A.69.69,0,0,0,186.72,117.51Z"/><path class="cls-3" d="M160,117.51a.66.66,0,0,0-.4.13l-4,2.73a.71.71,0,0,0-.19,1,.7.7,0,0,0,1,.18l3.58-2.46,3.79,2.47a.71.71,0,1,0,.78-1.19l-4.19-2.73A.69.69,0,0,0,160,117.51Z"/><text class="cls-4" transform="translate(99.49 101.54)">ㅋㅋㅋ</text></svg>