<svg id="Layer_1" data-name="Layer 1" xmlns="http://www.w3.org/2000/svg" viewBox="0 0 280 280"><defs><style>.cls-1{fill:#ffb1cf;}.cls-2{fill:#fff;}.cls-3{fill:#073778;}.cls-4{fill:#44a7ff;}</style></defs><title>Artboard 25 copy 14</title><circle class="cls-1" cx="140" cy="146.68" r="82.28"/><path class="cls-2" d="M186.79,135a7.83,7.83,0,0,0-1.08-.07c-6.55,0-11.86,7.45-11.86,16.64s5.31,16.64,11.86,16.64a9.79,9.79,0,0,0,1.08-.07c-2.71-3.9-4.45-9.87-4.45-16.57S184.08,138.9,186.79,135Z"/><path class="cls-3" d="M197.57,151.58c0-8.68-4.74-15.81-10.78-16.57-2.71,3.89-4.45,9.86-4.45,16.57s1.74,12.67,4.45,16.57C192.83,167.38,197.57,160.26,197.57,151.58Z"/><path class="cls-2" d="M160.59,135a7.83,7.83,0,0,0-1.08-.07c-6.55,0-11.86,7.45-11.86,16.64s5.31,16.64,11.86,16.64a9.79,9.79,0,0,0,1.08-.07c-2.71-3.9-4.45-9.87-4.45-16.57S157.88,138.9,160.59,135Z"/><path class="cls-3" d="M171.37,151.58c0-8.68-4.74-15.81-10.78-16.57-2.71,3.89-4.45,9.86-4.45,16.57s1.74,12.67,4.45,16.57C166.63,167.38,171.37,160.26,171.37,151.58Z"/><path class="cls-3" d="M171.77,167a7,7,0,0,1-1.49-.16.71.71,0,1,1,.32-1.38c.14,0,3.33.74,3.87-1.59s-2.55-3.25-2.68-3.29a.71.71,0,0,1,.37-1.37c1.58.43,4.37,2,3.69,5a3.38,3.38,0,0,1-1.5,2.17A5,5,0,0,1,171.77,167Z"/><path class="cls-3" d="M166.21,128.8a.71.71,0,0,1-.51-.21,5.54,5.54,0,0,0-4.07-1.94,6.16,6.16,0,0,0-3.89,1.85.7.7,0,1,1-1.05-.94,7.41,7.41,0,0,1,4.89-2.33,6.92,6.92,0,0,1,5.13,2.36.7.7,0,0,1,0,1A.67.67,0,0,1,166.21,128.8Z"/><path class="cls-3" d="M190.53,128.72a.73.73,0,0,1-.51-.21,5.56,5.56,0,0,0-4.07-1.94,6.16,6.16,0,0,0-3.89,1.85.7.7,0,0,1-1,.06.71.71,0,0,1-.05-1,7.42,7.42,0,0,1,4.9-2.33,6.93,6.93,0,0,1,5.12,2.36.71.71,0,0,1-.5,1.21Z"/><path class="cls-4" d="M117.23,72c-8-2.18-12-5.22-12-9.05s4-6.87,12-9C124,52.07,133.05,51,142.61,51s18.58,1,25.39,2.89c8,2.18,12,5.22,12,9s-4,6.87-12,9.05c-6.81,1.87-15.83,2.89-25.39,2.89S124,73.9,117.23,72ZM110,63c0,2.16,11.11,7.23,32.66,7.23s32.67-5.07,32.67-7.23-11.12-7.22-32.67-7.22S110,60.82,110,63Z"/><circle class="cls-2" cx="157.42" cy="152.47" r="4.42"/><circle class="cls-2" cx="183.37" cy="152.47" r="4.42"/></svg>