<svg id="Layer_1" data-name="Layer 1" xmlns="http://www.w3.org/2000/svg" viewBox="0 0 280 280"><defs><style>.cls-1{fill:#ff6d53;}.cls-2{fill:#fff;}.cls-3{fill:#073778;}.cls-4{fill:#fce11d;}</style></defs><title>Artboard 25 copy 9</title><circle class="cls-1" cx="140" cy="172.93" r="82.28"/><path class="cls-2" d="M186.79,161.25a9.79,9.79,0,0,0-1.08-.07c-6.55,0-11.86,7.45-11.86,16.64s5.31,16.64,11.86,16.64a9.79,9.79,0,0,0,1.08-.07c-2.71-3.89-4.45-9.87-4.45-16.57S184.08,165.14,186.79,161.25Z"/><path class="cls-3" d="M197.57,177.82c0-8.68-4.74-15.81-10.78-16.57-2.71,3.89-4.45,9.87-4.45,16.57s1.74,12.68,4.45,16.57C192.83,193.62,197.57,186.5,197.57,177.82Z"/><path class="cls-2" d="M160.59,161.25a9.79,9.79,0,0,0-1.08-.07c-6.55,0-11.86,7.45-11.86,16.64s5.31,16.64,11.86,16.64a9.79,9.79,0,0,0,1.08-.07c-2.71-3.89-4.45-9.87-4.45-16.57S157.88,165.14,160.59,161.25Z"/><path class="cls-3" d="M171.37,177.82c0-8.68-4.74-15.81-10.78-16.57-2.71,3.89-4.45,9.87-4.45,16.57s1.74,12.68,4.45,16.57C166.63,193.62,171.37,186.5,171.37,177.82Z"/><path class="cls-3" d="M171.77,193.25a7,7,0,0,1-1.49-.16.71.71,0,1,1,.32-1.38c.14,0,3.33.74,3.87-1.59s-2.55-3.25-2.68-3.29a.7.7,0,1,1,.37-1.36c1.58.43,4.37,2,3.69,5a3.33,3.33,0,0,1-1.5,2.17A4.91,4.91,0,0,1,171.77,193.25Z"/><path class="cls-3" d="M166.21,155a.71.71,0,0,1-.51-.21,5.54,5.54,0,0,0-4.07-1.94,6.1,6.1,0,0,0-3.89,1.86.71.71,0,0,1-1.05-.95,7.46,7.46,0,0,1,4.89-2.33,6.92,6.92,0,0,1,5.13,2.36.71.71,0,0,1,0,1A.7.7,0,0,1,166.21,155Z"/><path class="cls-3" d="M190.53,155a.73.73,0,0,1-.51-.21,5.56,5.56,0,0,0-4.07-1.94,6.1,6.1,0,0,0-3.89,1.86.71.71,0,0,1-1.05-.95,7.42,7.42,0,0,1,4.9-2.32,6.86,6.86,0,0,1,5.12,2.36.71.71,0,0,1,0,1A.74.74,0,0,1,190.53,155Z"/><path class="cls-4" d="M116.44,84.85C113.27,91.44,111.1,96,111.13,96c11.51,9.22,45.58,9.22,58.22,0,.27-.19-1.81-4.84-4.95-11.47C151.52,90,129,90.13,116.44,84.85Z"/><path class="cls-3" d="M164.4,84.55c-8.33-17.55-24.16-49-24.16-49s-15.41,31.87-23.8,49.35C129,90.13,151.52,90,164.4,84.55Z"/><path class="cls-4" d="M140.25,47.62a1.47,1.47,0,0,1-1.47-1.47V26.27a1.48,1.48,0,0,1,2.95,0V46.15A1.47,1.47,0,0,1,140.25,47.62Z"/><path class="cls-4" d="M150.19,37.68H130.32a1.48,1.48,0,1,1,0-3h19.87a1.48,1.48,0,1,1,0,3Z"/><path class="cls-4" d="M147.28,44.71a1.45,1.45,0,0,1-1-.43L132.18,30.22a1.47,1.47,0,0,1,2.09-2.08l14,14a1.47,1.47,0,0,1,0,2.09A1.44,1.44,0,0,1,147.28,44.71Z"/><path class="cls-4" d="M133.23,44.71a1.48,1.48,0,0,1-1-.43,1.49,1.49,0,0,1,0-2.09l14.06-14a1.47,1.47,0,0,1,2.08,2.08l-14,14.06A1.47,1.47,0,0,1,133.23,44.71Z"/><polygon class="cls-2" points="163.62 171.24 165.38 174.81 169.32 175.38 166.47 178.17 167.14 182.1 163.62 180.24 160.09 182.1 160.76 178.17 157.91 175.38 161.85 174.81 163.62 171.24"/><polygon class="cls-2" points="190.74 171.24 192.51 174.81 196.45 175.38 193.6 178.17 194.27 182.1 190.74 180.24 187.21 182.1 187.89 178.17 185.03 175.38 188.98 174.81 190.74 171.24"/><polygon class="cls-4" points="139.9 62.24 142.8 68.11 149.27 69.05 144.59 73.62 145.69 80.07 139.9 77.03 134.11 80.07 135.21 73.62 130.53 69.05 137 68.11 139.9 62.24"/></svg>