<svg id="Layer_1" data-name="Layer 1" xmlns="http://www.w3.org/2000/svg" viewBox="0 0 280 280"><defs><style>.cls-1{fill:#ffc500;}.cls-2{fill:#ea3914;}</style></defs><title>Artboard 25 copy 13</title><circle class="cls-1" cx="140" cy="159.22" r="82.28"/><path d="M186.88,147.2a7.88,7.88,0,0,0-1.09-.07c-6.59,0-11.94,7.5-11.94,16.75s5.35,16.75,11.94,16.75a9.81,9.81,0,0,0,1.09-.07c-2.73-3.92-4.48-9.93-4.48-16.68S184.15,151.12,186.88,147.2Z"/><path d="M197.73,163.88c0-8.74-4.77-15.91-10.85-16.68-2.73,3.92-4.48,9.93-4.48,16.68s1.75,12.76,4.48,16.68C193,179.79,197.73,172.62,197.73,163.88Z"/><path d="M160.5,147.2a7.88,7.88,0,0,0-1.09-.07c-6.59,0-11.94,7.5-11.94,16.75s5.35,16.75,11.94,16.75a9.81,9.81,0,0,0,1.09-.07c-2.73-3.92-4.47-9.93-4.47-16.68S157.77,151.12,160.5,147.2Z"/><path d="M171.35,163.88c0-8.74-4.77-15.91-10.85-16.68-2.73,3.92-4.47,9.93-4.47,16.68s1.74,12.76,4.47,16.68C166.58,179.79,171.35,172.62,171.35,163.88Z"/><path d="M171.55,172a.69.69,0,0,0-.56.28.72.72,0,0,0,.13,1l3.06,2.34-3.07,2.47a.72.72,0,0,0,.89,1.12l3.79-3.05a.73.73,0,0,0,0-1.13L172,172.11A.7.7,0,0,0,171.55,172Z"/><path d="M186.94,140.89a.73.73,0,0,0,.4-.13l4-2.73a.73.73,0,0,0,.18-1,.72.72,0,0,0-1-.18l-3.58,2.46-3.79-2.47a.72.72,0,0,0-.78,1.2l4.19,2.73A.69.69,0,0,0,186.94,140.89Z"/><path d="M160,136.73a.72.72,0,0,0-.4.12l-4,2.74a.71.71,0,0,0-.19,1,.72.72,0,0,0,1,.18L160,138.3l3.79,2.47a.71.71,0,0,0,1-.21.7.7,0,0,0-.21-1l-4.19-2.74A.68.68,0,0,0,160,136.73Z"/><path d="M178,165.8c-5.95-3.79-9.13-.27-9.26-.12l-.89-.77s4-4.46,10.78-.11Z"/><path class="cls-2" d="M139.12,108.69s-11.37-9.39,0-18.78C145.05,85,143.07,79,143.07,79s10.38,5.43,10.38,17.29c0,6.92-7.91,12.36-7.91,12.36s17.8-3,22.74-21.75S155.64,59.48,151,54.82c-6.42-6.43-4.45-16.31-4.45-16.31s-21.25,10.87-13.84,37.07c0,0-7.41-4-6.42-10.88,0,0-11.37,13.35-7.41,26.2S134.67,109.18,139.12,108.69Z"/></svg>