<svg id="Layer_1" data-name="Layer 1" xmlns="http://www.w3.org/2000/svg" viewBox="0 0 280 280"><defs><style>.cls-1{fill:#ffc500;}.cls-2{fill:#fff;}.cls-3{fill:#073778;}</style></defs><title>Artboard 25 copy 2</title><circle class="cls-1" cx="140" cy="140" r="82.28"/><path class="cls-2" d="M186.79,128.32a9.79,9.79,0,0,0-1.08-.07c-6.55,0-11.86,7.45-11.86,16.64s5.31,16.64,11.86,16.64a7.83,7.83,0,0,0,1.08-.07c-2.71-3.89-4.45-9.87-4.45-16.57S184.08,132.22,186.79,128.32Z"/><path class="cls-3" d="M197.57,144.89c0-8.68-4.74-15.8-10.78-16.57-2.71,3.9-4.45,9.87-4.45,16.57s1.74,12.68,4.45,16.57C192.83,160.7,197.57,153.57,197.57,144.89Z"/><path class="cls-2" d="M160.59,128.32a9.79,9.79,0,0,0-1.08-.07c-6.55,0-11.86,7.45-11.86,16.64s5.31,16.64,11.86,16.64a7.83,7.83,0,0,0,1.08-.07c-2.71-3.89-4.45-9.87-4.45-16.57S157.88,132.22,160.59,128.32Z"/><path class="cls-3" d="M171.37,144.89c0-8.68-4.74-15.8-10.78-16.57-2.71,3.9-4.45,9.87-4.45,16.57s1.74,12.68,4.45,16.57C166.63,160.7,171.37,153.57,171.37,144.89Z"/><path class="cls-3" d="M171.77,160.32a7.35,7.35,0,0,1-1.49-.15.71.71,0,0,1-.53-.86.7.7,0,0,1,.85-.52c.14,0,3.33.74,3.87-1.6s-2.55-3.25-2.68-3.29a.71.71,0,0,1-.5-.87.72.72,0,0,1,.87-.49c1.58.43,4.37,2,3.69,5a3.33,3.33,0,0,1-1.5,2.17A4.91,4.91,0,0,1,171.77,160.32Z"/><path class="cls-3" d="M181.64,121.35a.75.75,0,0,1,.55,0,5.56,5.56,0,0,0,4.49.45,6.14,6.14,0,0,0,3-3.07.72.72,0,0,1,.92-.39.71.71,0,0,1,.39.92,7.38,7.38,0,0,1-3.82,3.85,6.89,6.89,0,0,1-5.62-.48.72.72,0,0,1-.34-.94A.76.76,0,0,1,181.64,121.35Z"/><path class="cls-3" d="M156.29,121.35a.73.73,0,0,1,.54,0,5.56,5.56,0,0,0,4.49.45,6.14,6.14,0,0,0,3-3.07.72.72,0,0,1,.92-.39.71.71,0,0,1,.39.92,7.38,7.38,0,0,1-3.82,3.85,6.89,6.89,0,0,1-5.62-.48.7.7,0,0,1-.33-.94A.72.72,0,0,1,156.29,121.35Z"/><path class="cls-3" d="M154.31,91.8c-2.62,0-10.75-3.68-14.54-10.8a.89.89,0,0,1,1.56-.84A21.16,21.16,0,0,0,153.54,90a41.54,41.54,0,0,1-3.2-5.35c-2.24-4.4-1.71-4.87-1.29-5.25.81-.74,1.78.23,2.15.59,2.21,2.22,10.65,6.14,14.14,7.2a21.77,21.77,0,0,1-5-8.72.89.89,0,0,1,1.72-.43h0a20.42,20.42,0,0,0,5.07,8.44,3.83,3.83,0,0,1,.74.94,1.16,1.16,0,0,1-.15,1.42c-.39.39-1.19,1.19-8.58-2.2a53.9,53.9,0,0,1-8-4.41,38.87,38.87,0,0,0,4.26,7.26,1.49,1.49,0,0,1,.36,1.6,1.39,1.39,0,0,1-1.36.75Zm-.2-1.09Zm12.18-2.52Z"/><circle class="cls-2" cx="156.82" cy="146.92" r="4.42"/><circle class="cls-2" cx="183.36" cy="146.92" r="4.42"/><path class="cls-2" d="M161.84,181.06a4.72,4.72,0,0,1-9.44,0c0-2.61,3.35-9.89,4.72-9.89S161.84,178.45,161.84,181.06Z"/></svg>