<svg id="Layer_1" data-name="Layer 1" xmlns="http://www.w3.org/2000/svg" viewBox="0 0 280 280"><defs><style>.cls-1{fill:#75c12d;}.cls-2{fill:#fff;}.cls-3{fill:#073778;}.cls-4{fill:#ffc500;}</style></defs><title>Artboard 25 copy 10</title><circle class="cls-1" cx="140" cy="140" r="82.28"/><path class="cls-2" d="M186.79,128.32a9.79,9.79,0,0,0-1.08-.07c-6.55,0-11.86,7.45-11.86,16.64s5.31,16.64,11.86,16.64a7.83,7.83,0,0,0,1.08-.07c-2.71-3.89-4.45-9.87-4.45-16.57S184.08,132.22,186.79,128.32Z"/><path class="cls-3" d="M197.57,144.89c0-8.68-4.74-15.8-10.78-16.57-2.71,3.9-4.45,9.87-4.45,16.57s1.74,12.68,4.45,16.57C192.83,160.7,197.57,153.57,197.57,144.89Z"/><path class="cls-2" d="M160.59,128.32a9.79,9.79,0,0,0-1.08-.07c-6.55,0-11.86,7.45-11.86,16.64s5.31,16.64,11.86,16.64a7.83,7.83,0,0,0,1.08-.07c-2.71-3.89-4.45-9.87-4.45-16.57S157.88,132.22,160.59,128.32Z"/><path class="cls-3" d="M171.37,144.89c0-8.68-4.74-15.8-10.78-16.57-2.71,3.9-4.45,9.87-4.45,16.57s1.74,12.68,4.45,16.57C166.63,160.7,171.37,153.57,171.37,144.89Z"/><path class="cls-3" d="M171.77,160.32a7.35,7.35,0,0,1-1.49-.15.71.71,0,0,1-.53-.86.7.7,0,0,1,.85-.52c.14,0,3.33.74,3.87-1.6s-2.55-3.25-2.68-3.29a.71.71,0,0,1-.5-.87.72.72,0,0,1,.87-.49c1.58.43,4.37,2,3.69,5a3.33,3.33,0,0,1-1.5,2.17A4.91,4.91,0,0,1,171.77,160.32Z"/><path class="cls-3" d="M182.35,121.66a.7.7,0,0,0,.55,0,5.56,5.56,0,0,1,4.49-.45,6.1,6.1,0,0,1,3,3.07.7.7,0,0,0,.92.38.69.69,0,0,0,.39-.91,7.42,7.42,0,0,0-3.82-3.85,6.85,6.85,0,0,0-5.62.48.7.7,0,0,0,.06,1.3Z"/><path class="cls-3" d="M157,121.66a.7.7,0,0,0,.55,0,5.56,5.56,0,0,1,4.49-.45,6.1,6.1,0,0,1,3,3.07.7.7,0,0,0,.92.38.69.69,0,0,0,.39-.91,7.38,7.38,0,0,0-3.82-3.85,6.85,6.85,0,0,0-5.62.48.7.7,0,0,0-.33.94A.69.69,0,0,0,157,121.66Z"/><ellipse class="cls-2" cx="100.74" cy="82.8" rx="2.7" ry="4.05"/><ellipse class="cls-2" cx="95.43" cy="86.91" rx="2.7" ry="4.05" transform="translate(-16.72 150.82) rotate(-72)"/><ellipse class="cls-2" cx="97.25" cy="93.35" rx="4.05" ry="2.7" transform="translate(-35.43 117.16) rotate(-54)"/><ellipse class="cls-2" cx="104" cy="93.35" rx="2.7" ry="4.05" transform="translate(-35.01 78.96) rotate(-36)"/><ellipse class="cls-2" cx="106.08" cy="86.91" rx="4.05" ry="2.7" transform="translate(-21.67 37.03) rotate(-18)"/><circle class="cls-4" cx="100.57" cy="88.42" r="2.65"/><ellipse class="cls-2" cx="124.97" cy="91.16" rx="2.7" ry="4.05"/><ellipse class="cls-2" cx="119.66" cy="95.27" rx="2.7" ry="4.05" transform="matrix(0.31, -0.95, 0.95, 0.31, -7.92, 179.64)"/><ellipse class="cls-2" cx="121.48" cy="101.71" rx="4.05" ry="2.7" transform="translate(-32.2 140.21) rotate(-54)"/><ellipse class="cls-2" cx="128.23" cy="101.71" rx="2.7" ry="4.05" transform="translate(-35.29 94.8) rotate(-36)"/><ellipse class="cls-2" cx="130.31" cy="95.27" rx="4.05" ry="2.7" transform="translate(-23.06 44.93) rotate(-18)"/><circle class="cls-4" cx="124.8" cy="96.78" r="2.65"/><ellipse class="cls-2" cx="150.55" cy="91.86" rx="2.7" ry="4.05"/><ellipse class="cls-2" cx="145.24" cy="95.98" rx="2.7" ry="4.05" transform="translate(9.08 204.45) rotate(-72)"/><ellipse class="cls-2" cx="147.06" cy="102.41" rx="4.05" ry="2.7" transform="translate(-22.23 161.19) rotate(-54)"/><ellipse class="cls-2" cx="153.81" cy="102.41" rx="2.7" ry="4.05" transform="translate(-30.82 109.97) rotate(-36)"/><ellipse class="cls-2" cx="155.88" cy="95.98" rx="4.05" ry="2.7" transform="translate(-22.03 52.87) rotate(-18)"/><circle class="cls-4" cx="150.38" cy="97.48" r="2.65"/><ellipse class="cls-2" cx="176.94" cy="80.53" rx="2.7" ry="4.05"/><ellipse class="cls-2" cx="171.64" cy="84.64" rx="2.7" ry="4.05" transform="matrix(0.31, -0.95, 0.95, 0.31, 38.1, 221.73)"/><ellipse class="cls-2" cx="173.46" cy="91.08" rx="4.05" ry="2.7" transform="translate(-2.18 177.87) rotate(-54)"/><ellipse class="cls-2" cx="180.21" cy="91.08" rx="2.7" ry="4.05" transform="translate(-19.12 123.32) rotate(-36)"/><ellipse class="cls-2" cx="182.28" cy="84.64" rx="4.05" ry="2.7" transform="matrix(0.95, -0.31, 0.31, 0.95, -17.23, 60.47)"/><circle class="cls-4" cx="176.78" cy="86.15" r="2.65"/></svg>