<svg id="Layer_1" data-name="Layer 1" xmlns="http://www.w3.org/2000/svg" viewBox="0 0 280 280"><defs><style>.cls-1{fill:#779cea;}.cls-2{fill:#fff;}.cls-3{fill:#073778;}.cls-4{fill:#ffb1cf;}</style></defs><title>Artboard 25 copy 7</title><circle class="cls-1" cx="140" cy="140" r="82.28"/><path class="cls-2" d="M186.79,128.32a9.79,9.79,0,0,0-1.08-.07c-6.55,0-11.86,7.45-11.86,16.64s5.31,16.64,11.86,16.64a7.83,7.83,0,0,0,1.08-.07c-2.71-3.89-4.45-9.87-4.45-16.57S184.08,132.22,186.79,128.32Z"/><path class="cls-3" d="M197.57,144.89c0-8.68-4.74-15.8-10.78-16.57-2.71,3.9-4.45,9.87-4.45,16.57s1.74,12.68,4.45,16.57C192.83,160.7,197.57,153.57,197.57,144.89Z"/><path class="cls-2" d="M160.59,128.32a9.79,9.79,0,0,0-1.08-.07c-6.55,0-11.86,7.45-11.86,16.64s5.31,16.64,11.86,16.64a7.83,7.83,0,0,0,1.08-.07c-2.71-3.89-4.45-9.87-4.45-16.57S157.88,132.22,160.59,128.32Z"/><path class="cls-3" d="M171.37,144.89c0-8.68-4.74-15.8-10.78-16.57-2.71,3.9-4.45,9.87-4.45,16.57s1.74,12.68,4.45,16.57C166.63,160.7,171.37,153.57,171.37,144.89Z"/><path class="cls-3" d="M166.25,122.28a.74.74,0,0,1-.51-.2,5.55,5.55,0,0,0-4.11-1.86,6,6,0,0,0-3.85,1.94.71.71,0,0,1-1.08-.92,7.46,7.46,0,0,1,4.85-2.43,6.9,6.9,0,0,1,5.18,2.25.71.71,0,0,1,0,1A.72.72,0,0,1,166.25,122.28Z"/><path class="cls-3" d="M190.56,121.68a.73.73,0,0,1-.51-.2,5.58,5.58,0,0,0-4.11-1.85,6.06,6.06,0,0,0-3.85,1.94.71.71,0,1,1-1.07-.93,7.47,7.47,0,0,1,4.85-2.43,7,7,0,0,1,5.17,2.25.71.71,0,0,1-.48,1.22Z"/><path class="cls-3" d="M173,163.86a6.29,6.29,0,0,1-1.49-.16.7.7,0,1,1,.32-1.37c.14,0,3.33.74,3.87-1.6s-2.55-3.25-2.68-3.29a.7.7,0,1,1,.37-1.36c1.57.43,4.37,2,3.69,5a3.31,3.31,0,0,1-1.51,2.17A4.86,4.86,0,0,1,173,163.86Z"/><path class="cls-2" d="M99.36,131.18l-18.75,39a5,5,0,0,0,4.5,7.17h37.51a5,5,0,0,0,4.51-7.17l-18.76-39A5,5,0,0,0,99.36,131.18Z"/><rect class="cls-2" x="94.98" y="112.93" width="17.77" height="35.53" rx="2.75" ry="2.75"/><path class="cls-4" d="M85.84,170c-.84,1.76-1.45,3.79,2.38,3.79h31.24c4,0,3.22-2,2.38-3.79l-8.35-17.34H94.19Z"/><path class="cls-3" d="M152.13,91.25a1.38,1.38,0,0,1-1.36-.75,1.46,1.46,0,0,1,.37-1.59,39.47,39.47,0,0,0,4.25-7.27,53.9,53.9,0,0,1-8,4.41c-7.39,3.39-8.19,2.59-8.58,2.21a1.19,1.19,0,0,1-.15-1.43,4.24,4.24,0,0,1,.74-.94,20.71,20.71,0,0,0,5.08-8.43h0a.88.88,0,0,1,1.71.43,21.84,21.84,0,0,1-5,8.71c3.49-1,11.93-5,14.14-7.19.37-.37,1.33-1.34,2.16-.59.42.38.94.85-1.29,5.24A43.64,43.64,0,0,1,153,89.42a21.24,21.24,0,0,0,12.21-9.8.88.88,0,1,1,1.56.83c-3.79,7.12-11.92,10.81-14.54,10.81Zm.28-1.09Zm-12.18-2.52h0Z"/></svg>