<svg id="Layer_1" data-name="Layer 1" xmlns="http://www.w3.org/2000/svg" viewBox="0 0 280 280"><defs><style>.cls-1{fill:#ffb1cf;}.cls-2{fill:#fff;}.cls-3{fill:#073778;}.cls-4{fill:#ff3c51;}</style></defs><title>Artboard 25 copy 4</title><circle class="cls-1" cx="140" cy="140" r="82.28"/><path class="cls-2" d="M186.88,128a9.81,9.81,0,0,0-1.09-.07c-6.59,0-11.94,7.5-11.94,16.75s5.35,16.75,11.94,16.75a7.88,7.88,0,0,0,1.09-.07c-2.73-3.92-4.48-9.93-4.48-16.68S184.15,131.9,186.88,128Z"/><path class="cls-3" d="M197.73,144.66c0-8.74-4.77-15.91-10.85-16.68-2.73,3.92-4.48,9.94-4.48,16.68s1.75,12.76,4.48,16.68C193,160.57,197.73,153.4,197.73,144.66Z"/><path class="cls-2" d="M160.5,128a9.81,9.81,0,0,0-1.09-.07c-6.59,0-11.94,7.5-11.94,16.75s5.35,16.75,11.94,16.75a7.88,7.88,0,0,0,1.09-.07c-2.73-3.92-4.47-9.93-4.47-16.68S157.77,131.9,160.5,128Z"/><path class="cls-3" d="M171.35,144.66c0-8.74-4.77-15.91-10.85-16.68-2.73,3.92-4.47,9.94-4.47,16.68s1.74,12.76,4.47,16.68C166.58,160.57,171.35,153.4,171.35,144.66Z"/><path class="cls-3" d="M171.55,152.75a.71.71,0,0,0-.43,1.28l3.06,2.34-3.07,2.48A.71.71,0,0,0,172,160l3.79-3.05a.7.7,0,0,0,.26-.56.69.69,0,0,0-.28-.56L172,152.9A.71.71,0,0,0,171.55,152.75Z"/><path class="cls-3" d="M186.72,117.51a.66.66,0,0,0-.4.13l-4,2.73a.72.72,0,0,0-.18,1,.7.7,0,0,0,1,.18l3.58-2.46,3.79,2.47a.71.71,0,0,0,1-.2.72.72,0,0,0-.21-1l-4.19-2.73A.69.69,0,0,0,186.72,117.51Z"/><path class="cls-3" d="M160,117.51a.66.66,0,0,0-.4.13l-4,2.73a.71.71,0,0,0-.19,1,.7.7,0,0,0,1,.18l3.58-2.46,3.79,2.47a.71.71,0,1,0,.78-1.19l-4.19-2.73A.69.69,0,0,0,160,117.51Z"/><path class="cls-4" d="M116.94,130.88c-3.67-4.16-10.41-3.5-16.27,1.11-5.86-4.61-12.6-5.27-16.27-1.11-4.37,5-2.72,14.85,3.68,22.1a22.13,22.13,0,0,0,7.35,5.6c1.51,1,3.94,2.25,5.24,2.25,1.82,0,3.74-1.27,5.24-2.25a22,22,0,0,0,7.35-5.6C119.66,145.73,121.31,135.83,116.94,130.88Z"/><path class="cls-4" d="M145.52,94.87c-.77.51-1.62,1-2.58,1.54-9.24,4.93-18.9.8-19.31.63a1.18,1.18,0,1,1,1-2.16c.08,0,9,3.84,17.25-.55.81-.43,1.53-.86,2.17-1.28a15.66,15.66,0,0,1-1.16-1.93c-1.91-3.8-1.69-7.67.54-9.62a4.87,4.87,0,0,1,5.2-.9,5.47,5.47,0,0,1,3.22,4.89c.07,1.74-.51,4.74-4.37,8,3.12,3.07,8.27,5.23,15.35,3.71,4-.85,6.32-2.41,7.73-4A13.31,13.31,0,0,1,165.37,88,4.69,4.69,0,0,1,167,82.06a4.2,4.2,0,0,1,4.91-.54c2.25,1.32,3.46,4.56,2.93,7.89a10.46,10.46,0,0,1-1,3c5.06,2.61,12,4.42,17.27,3.59a1.18,1.18,0,1,1,.37,2.33c-5.6.88-13.27-1-18.93-3.94-1.66,2-4.49,4.07-9.32,5.11a24,24,0,0,1-5,.55A17.31,17.31,0,0,1,145.52,94.87Zm-.59-11.59c-1.38,1.21-1.37,4,0,6.78a13.89,13.89,0,0,0,1,1.59c3.24-2.7,3.59-5,3.54-6.06a3.13,3.13,0,0,0-1.79-2.83,2.44,2.44,0,0,0-1-.19A2.69,2.69,0,0,0,144.93,83.28Zm23.55.62c-1.19.95-1.48,1.91-.95,3.12a11,11,0,0,0,4.3,4.18,8,8,0,0,0,.69-2.16c.42-2.64-.61-4.79-1.79-5.48a1.66,1.66,0,0,0-.85-.24A2.3,2.3,0,0,0,168.48,83.9Z"/></svg>