<svg id="Layer_1" data-name="Layer 1" xmlns="http://www.w3.org/2000/svg" viewBox="0 0 280 280"><defs><style>.cls-1{fill:#569aff;}.cls-2{fill:#fff;}.cls-3{fill:#073778;}.cls-4{fill:#ff6d53;}.cls-5{fill:#ffc500;}.cls-6{fill:#75c12d;}.cls-7{fill:#a3a1ff;}</style></defs><title>Artboard 25 copy 8</title><circle class="cls-1" cx="140" cy="144.31" r="82.28"/><path class="cls-2" d="M186.79,132.63a9.79,9.79,0,0,0-1.08-.07c-6.55,0-11.86,7.45-11.86,16.64s5.31,16.64,11.86,16.64a7.83,7.83,0,0,0,1.08-.07c-2.71-3.89-4.45-9.87-4.45-16.57S184.08,136.53,186.79,132.63Z"/><path class="cls-3" d="M197.57,149.2c0-8.68-4.74-15.8-10.78-16.57-2.71,3.9-4.45,9.87-4.45,16.57s1.74,12.68,4.45,16.57C192.83,165,197.57,157.88,197.57,149.2Z"/><path class="cls-2" d="M160.59,132.63a9.79,9.79,0,0,0-1.08-.07c-6.55,0-11.86,7.45-11.86,16.64s5.31,16.64,11.86,16.64a7.83,7.83,0,0,0,1.08-.07c-2.71-3.89-4.45-9.87-4.45-16.57S157.88,136.53,160.59,132.63Z"/><path class="cls-3" d="M171.37,149.2c0-8.68-4.74-15.8-10.78-16.57-2.71,3.9-4.45,9.87-4.45,16.57s1.74,12.68,4.45,16.57C166.63,165,171.37,157.88,171.37,149.2Z"/><path class="cls-3" d="M171.77,164.63a7.35,7.35,0,0,1-1.49-.15.72.72,0,0,1-.53-.86.7.7,0,0,1,.85-.52c.14,0,3.33.74,3.87-1.6s-2.55-3.25-2.68-3.29a.71.71,0,0,1-.5-.87.72.72,0,0,1,.87-.49c1.58.43,4.37,2,3.69,5a3.33,3.33,0,0,1-1.5,2.17A4.91,4.91,0,0,1,171.77,164.63Z"/><path class="cls-3" d="M166.21,126.42a.71.71,0,0,1-.51-.21,5.54,5.54,0,0,0-4.07-1.94,6.1,6.1,0,0,0-3.89,1.86.71.71,0,0,1-1.05-.95,7.42,7.42,0,0,1,4.89-2.32,6.85,6.85,0,0,1,5.13,2.36.7.7,0,0,1-.5,1.2Z"/><path class="cls-3" d="M190.53,126.34a.73.73,0,0,1-.51-.21,5.56,5.56,0,0,0-4.07-1.94,6.1,6.1,0,0,0-3.89,1.86.71.71,0,0,1-1.05-1,7.42,7.42,0,0,1,4.9-2.32,6.9,6.9,0,0,1,5.12,2.36.71.71,0,0,1,0,1A.69.69,0,0,1,190.53,126.34Z"/><circle class="cls-2" cx="156.83" cy="150.1" r="4.42"/><circle class="cls-2" cx="182.77" cy="150.1" r="4.42"/><path class="cls-3" d="M126.51,53.59c-14.11-1.15-38.69,2.76-50.74,27.22-6.4,13-2,17.58,11.78,13.17C114.19,85.48,190.21,58.8,126.51,53.59Z"/><ellipse class="cls-3" cx="100.53" cy="57.68" rx="3.67" ry="3.06" transform="translate(-13.69 37.98) rotate(-20.06)"/><path class="cls-2" d="M125.28,139.78c-3-5.31-10.32,2.65-15-2.66-5.88-6.61,2.36-10.61-2.66-14.45-10-5.3-19.16,0-23.29,3.84-18,16.8-10.76,34.49-3,41.28,7.65,6.64,25.06,14.45,40.4-3.1C125.57,160.31,130.3,150,125.28,139.78Z"/><circle class="cls-4" cx="92.55" cy="132.4" r="4.42"/><circle class="cls-5" cx="83.7" cy="145.97" r="4.42"/><circle class="cls-6" cx="89.01" cy="161.89" r="4.42"/><circle class="cls-7" cx="106.11" cy="165.43" r="4.42"/><circle class="cls-1" cx="117.31" cy="153.63" r="4.42"/></svg>