<svg id="Layer_1" data-name="Layer 1" xmlns="http://www.w3.org/2000/svg" viewBox="0 0 280 280"><defs><style>.cls-1{fill:#c461db;}.cls-2{fill:#fff;}.cls-3{fill:#e7c0f1;}.cls-4{fill:#9cafc9;}.cls-5{fill:#6a87ae;}.cls-6{fill:#073778;}</style></defs><title>Artboard 25 copy 6</title><path class="cls-1" d="M196.64,80.36c-.54-.52-1.09-1-1.64-1.54-.21.82-.46,1.68-.78,2.59C195,81.1,195.79,80.75,196.64,80.36Z"/><path class="cls-1" d="M206.67,91.82h0c-7.07,12-12.67,2.72-15.36-3.84-.36.67-.74,1.36-1.16,2.07-10,17.1-17.1-8.85-17.1-8.85s8.87-2.22,15.23-7.81a82.35,82.35,0,1,0,18.39,18.42ZM181.6,117.19h8.85a.88.88,0,0,1,0,1.76H181.6a.88.88,0,1,1,0-1.76Zm-25.95,0h8.85a.88.88,0,0,1,0,1.76h-8.85a.88.88,0,1,1,0-1.76Zm37.48,40.68v.1a8.51,8.51,0,0,1,0,1v0a9.16,9.16,0,0,1-9.13,8.75h-.4a9.38,9.38,0,0,1-2.7-.53,9.18,9.18,0,0,1-6-9,2.29,2.29,0,0,1,0-.25l-.16-.07-.16-.05a3.29,3.29,0,0,0-.68-.14c-.15,0-.28,0-.42,0l-.33,0-.27,0-.29.08-.12,0a1.48,1.48,0,0,1,0,.21,9.16,9.16,0,0,1-9.13,8.75h-.4a9.26,9.26,0,0,1-6.32-2.93l0,0h0a10,10,0,0,1-.65-.81c-.07-.09-.12-.18-.18-.27s-.27-.41-.39-.62l-.17-.31c-.11-.22-.21-.44-.3-.67l-.12-.27a8.41,8.41,0,0,1-.31-1v0c-4-2.67-6.8-8.39-6.8-15,0-9.19,5.31-16.64,11.86-16.64a9.79,9.79,0,0,1,1.08.07c6,.77,10.78,7.89,10.78,16.57a22.24,22.24,0,0,1-1.08,6.91h0l.09.13a8.65,8.65,0,0,1,.67.92l.05.07a8.88,8.88,0,0,1,.55,1.06l.12.27a9.73,9.73,0,0,1,.39,1.15.36.36,0,0,1,0,.1,8.49,8.49,0,0,1,.21,1.14,1,1,0,0,0,0,.17h0l.21,0,.44-.08.27,0,.26,0H174a4.34,4.34,0,0,1,.52.08l.14,0,.37.1h0s0-.1,0-.15a9.45,9.45,0,0,1,.31-1.16v0a10.36,10.36,0,0,1,.47-1.08s0-.1.07-.14h0a21.42,21.42,0,0,1-2.09-9.43c0-9.19,5.31-16.64,11.86-16.64a9.79,9.79,0,0,1,1.08.07c6,.77,10.78,7.89,10.78,16.57a19.68,19.68,0,0,1-4.44,13Z"/><path class="cls-2" d="M176.22,153.84l.3-.44c.06-.09.11-.17.18-.26s.24-.3.36-.45l.18-.2c.19-.21.39-.42.6-.61h0a8.45,8.45,0,0,1,.95-.75A2.2,2.2,0,0,1,179,151a8.07,8.07,0,0,1,1-.59l0,0a10.06,10.06,0,0,1,1.08-.42l.28-.08a9.29,9.29,0,0,1,1.16-.27h0a37.59,37.59,0,0,1-.3-4.69c0-6.7,1.74-12.67,4.45-16.57a9.79,9.79,0,0,0-1.08-.07c-6.55,0-11.86,7.45-11.86,16.64a21.42,21.42,0,0,0,2.09,9.43l.12-.2C176.11,154,176.17,153.94,176.22,153.84Z"/><path class="cls-2" d="M154.26,158.81c0-.1,0-.2,0-.3a9.41,9.41,0,0,1,0-1.19h0a8.52,8.52,0,0,1,.08-.87,2.38,2.38,0,0,1,0-.26c0-.2.07-.4.11-.59l.09-.31c0-.17.09-.34.15-.52l.12-.31a4.89,4.89,0,0,1,.2-.48,2.3,2.3,0,0,1,.15-.32c.07-.15.15-.3.23-.45s.12-.2.19-.3.18-.29.27-.42l.21-.29.33-.4.23-.27.11-.12,0,0a36.62,36.62,0,0,1-.59-6.5c0-6.7,1.74-12.67,4.45-16.57a9.79,9.79,0,0,0-1.08-.07c-6.55,0-11.86,7.45-11.86,16.64,0,6.65,2.78,12.37,6.8,15a.17.17,0,0,1,0-.07A8.85,8.85,0,0,1,154.26,158.81Z"/><path class="cls-1" d="M193.69,65.88a18.8,18.8,0,0,1-5.41,7.52A81.23,81.23,0,0,1,195,78.82C197.27,69.79,193.69,65.88,193.69,65.88Z"/><path class="cls-1" d="M190.15,90.06c.42-.71.8-1.4,1.16-2.07a48.4,48.4,0,0,1-1.75-5,38.6,38.6,0,0,0,4.66-1.57c.32-.91.57-1.77.78-2.59a81.23,81.23,0,0,0-6.72-5.42c-6.36,5.59-15.23,7.81-15.23,7.81S180.13,107.16,190.15,90.06Z"/><path class="cls-1" d="M206.67,91.82c10-17.1,3.53-24.17,3.53-24.17-2.32,6.29-8.55,10.36-13.56,12.71A81.63,81.63,0,0,1,206.67,91.82Z"/><path class="cls-1" d="M191.31,88c2.69,6.56,8.29,15.89,15.36,3.84h0a81.63,81.63,0,0,0-10-11.46c-.85.39-1.66.74-2.42,1A45.9,45.9,0,0,1,191.31,88Z"/><path class="cls-1" d="M189.56,83a48.4,48.4,0,0,0,1.75,5,45.9,45.9,0,0,0,2.91-6.58A38.6,38.6,0,0,1,189.56,83Z"/><path class="cls-3" d="M171.2,158.55l-.16.12-.06.05-.08.06a.42.42,0,0,1-.17.1l-.07,0-.11,0h0a.32.32,0,0,1-.14,0h-.06a.46.46,0,0,1-.18-.13.39.39,0,0,1-.08-.14.51.51,0,0,1,.12-.59h0a2.1,2.1,0,0,1,.25-.21l.06,0,.2-.14.14-.09.24-.15.19-.1v0a8.28,8.28,0,0,0-.13-1l-.06-.27a6.39,6.39,0,0,0-.22-.78,1.06,1.06,0,0,0-.06-.19,8.81,8.81,0,0,0-.38-.89l-.12-.21c-.13-.23-.26-.45-.41-.67l-.08-.12-.21.46a2.44,2.44,0,0,1-.1.24q-.25.55-.54,1.08a2.39,2.39,0,0,1-.12.22c-.17.3-.34.6-.53.89l-.11.18c-.22.32-.44.63-.67.93l-.16.2c-.21.26-.42.51-.64.74l-.12.13a9.15,9.15,0,0,1-.78.75l-.19.17a8.45,8.45,0,0,1-.75.59l-.1.08a9,9,0,0,1-.88.54l-.21.12c-.29.15-.58.29-.87.41l-.07,0a8.16,8.16,0,0,1-1,.32l-.24.06a8.63,8.63,0,0,1-1,.19,7.83,7.83,0,0,1-1.08.07,9.81,9.81,0,0,1-1.09-.07l-.33-.06c-.26,0-.52-.1-.78-.16l-.31-.09a8.8,8.8,0,0,1-1-.35h0l0,.09a7.16,7.16,0,0,0,.56,1.06l.09.15a9.38,9.38,0,0,0,.78,1h0a7.87,7.87,0,0,0,5.52,2.58c.21,0,.41,0,.61,0h.33l.44,0,.33-.05c.15,0,.29-.06.43-.09l.32-.07.41-.14.3-.1c.14,0,.28-.12.42-.18l.27-.12.42-.23.23-.13.55-.37.07,0c.2-.15.39-.31.57-.47l.18-.19.34-.34c.07-.08.13-.16.2-.23l.28-.34.18-.27c.08-.11.17-.23.24-.35s.11-.19.17-.29.13-.24.19-.37l.15-.3.16-.39.11-.32c0-.14.09-.27.12-.41l.09-.33c0-.14.06-.28.08-.42s0-.23.05-.35,0-.12,0-.19Z"/><path class="cls-3" d="M157.31,161.24l-.31-.09Z"/><path class="cls-3" d="M156,160.79h0l0,0Z"/><path class="cls-3" d="M158.42,161.46l-.33-.06Z"/><path class="cls-3" d="M167.54,157.13l-.16.2Z"/><path class="cls-3" d="M166.74,158.07l-.12.13Z"/><path class="cls-3" d="M165.84,159l-.19.17Z"/><path class="cls-3" d="M168.32,156l-.11.18Z"/><path class="cls-3" d="M169,154.91a2.39,2.39,0,0,1-.12.22A2.39,2.39,0,0,0,169,154.91Z"/><path class="cls-3" d="M164.9,159.71l-.1.08Z"/><path class="cls-3" d="M162.84,160.86l-.07,0Z"/><path class="cls-3" d="M161.82,161.21l-.24.06Z"/><path class="cls-3" d="M169.61,153.59a2.44,2.44,0,0,1-.1.24A2.44,2.44,0,0,0,169.61,153.59Z"/><path class="cls-3" d="M163.92,160.33l-.21.12Z"/><path class="cls-2" d="M157,161.15a8.8,8.8,0,0,1-1-.35A8.8,8.8,0,0,0,157,161.15Z"/><path class="cls-2" d="M158.09,161.4c-.26,0-.52-.1-.78-.16C157.57,161.3,157.83,161.36,158.09,161.4Z"/><path class="cls-2" d="M159.51,161.53a9.81,9.81,0,0,1-1.09-.07A9.81,9.81,0,0,0,159.51,161.53Z"/><path class="cls-2" d="M159.57,159.81c-.26-.47-.51-1-.75-1.5l-.14-.3c-.23-.54-.46-1.09-.66-1.66l-.08-.24c-.2-.57-.39-1.16-.56-1.77,0-.05,0-.1,0-.15-.12-.43-.23-.87-.33-1.31l0,.05a7.43,7.43,0,0,0-.58.88l-.1.2a6.85,6.85,0,0,0-.4.87l-.06.14a7,7,0,0,0-.28,1c0,.08,0,.16-.05.25a9.55,9.55,0,0,0-.13,1.09,7.63,7.63,0,0,0,0,.83,2.4,2.4,0,0,0,0,.28,5.14,5.14,0,0,0,.06.55c0,.11.05.21.07.32s.07.32.11.49.07.21.1.32.11.31.16.46a1,1,0,0,1,.07.15l0,0a8.8,8.8,0,0,0,1,.35l.31.09c.26.06.52.12.78.16l.33.06a9.81,9.81,0,0,0,1.09.07,7.83,7.83,0,0,0,1.08-.07c-.31-.44-.6-.92-.88-1.41Z"/><path class="cls-2" d="M157.34,154.19c0,.05,0,.1,0,.15S157.35,154.24,157.34,154.19Z"/><path class="cls-2" d="M159.57,159.81l.14.24Z"/><path class="cls-2" d="M158.68,158l.14.3Z"/><path class="cls-2" d="M157.94,156.11l.08.24Z"/><path class="cls-4" d="M167.38,157.33c-.21.26-.42.51-.64.74C167,157.84,167.17,157.59,167.38,157.33Z"/><path class="cls-4" d="M169.61,153.59l.21-.46v0Z"/><path class="cls-4" d="M162.77,160.89a8.16,8.16,0,0,1-1,.32A8.16,8.16,0,0,0,162.77,160.89Z"/><path class="cls-4" d="M161.58,161.27a8.63,8.63,0,0,1-1,.19A8.63,8.63,0,0,0,161.58,161.27Z"/><path class="cls-4" d="M163.71,160.45c-.29.15-.58.29-.87.41C163.13,160.74,163.42,160.6,163.71,160.45Z"/><path class="cls-4" d="M168.21,156.2c-.22.32-.44.63-.67.93C167.77,156.83,168,156.52,168.21,156.2Z"/><path class="cls-4" d="M165.65,159.12a8.45,8.45,0,0,1-.75.59A8.45,8.45,0,0,0,165.65,159.12Z"/><path class="cls-4" d="M166.62,158.2a9.15,9.15,0,0,1-.78.75A9.15,9.15,0,0,0,166.62,158.2Z"/><path class="cls-4" d="M168.85,155.13c-.17.3-.34.6-.53.89C168.51,155.73,168.68,155.43,168.85,155.13Z"/><path class="cls-4" d="M164.8,159.79a9,9,0,0,1-.88.54A9,9,0,0,0,164.8,159.79Z"/><path class="cls-4" d="M169.51,153.83q-.25.55-.54,1.08Q169.26,154.39,169.51,153.83Z"/><path class="cls-4" d="M158,156.35c.2.57.43,1.12.66,1.66C158.45,157.47,158.22,156.92,158,156.35Z"/><path class="cls-4" d="M157.38,154.34c.17.61.36,1.2.56,1.77C157.74,155.54,157.55,155,157.38,154.34Z"/><path class="cls-4" d="M158.82,158.31c.24.52.49,1,.75,1.5C159.31,159.34,159.06,158.83,158.82,158.31Z"/><path class="cls-4" d="M157.34,154.19c-.12-.43-.21-.88-.31-1.33l0,0C157.11,153.32,157.22,153.76,157.34,154.19Z"/><path class="cls-4" d="M160.59,161.46c-.31-.44-.6-.92-.88-1.41C160,160.54,160.28,161,160.59,161.46Z"/><path class="cls-4" d="M169.75,153c-.11-.15-.23-.3-.35-.44s-.11-.14-.17-.2a5.48,5.48,0,0,0-.59-.59l-.06-.06a6.65,6.65,0,0,0-.59-.46,1.88,1.88,0,0,0-.23-.16c-.15-.1-.31-.21-.47-.3l-.29-.15-.47-.23-.31-.13-.5-.18-.32-.09-.56-.13-.29-.06a7.53,7.53,0,0,0-.83-.08h-1l-.43.05-.33,0-.41.09-.33.07-.41.13-.31.11-.4.16-.29.13-.39.22-.27.15c-.14.08-.27.18-.4.27a1.88,1.88,0,0,0-.23.16,5.17,5.17,0,0,0-.51.42l-.09.07a8.29,8.29,0,0,0-.85.93l-.06.08c.1.45.19.9.31,1.33,0,.05,0,.1,0,.15.17.61.36,1.2.56,1.77l.08.24c.2.57.43,1.12.66,1.66l.14.3c.24.52.49,1,.75,1.5l.14.24c.28.49.57,1,.88,1.41a8.63,8.63,0,0,0,1-.19l.24-.06a8.16,8.16,0,0,0,1-.32l.07,0c.29-.12.58-.26.87-.41l.21-.12a9,9,0,0,0,.88-.54l.1-.08a8.45,8.45,0,0,0,.75-.59l.19-.17a9.15,9.15,0,0,0,.78-.75l.12-.13c.22-.23.43-.48.64-.74l.16-.2c.23-.3.45-.61.67-.93l.11-.18c.19-.29.36-.59.53-.89a2.39,2.39,0,0,0,.12-.22q.28-.53.54-1.08a2.44,2.44,0,0,0,.1-.24l.2-.48Z"/><path class="cls-5" d="M154.45,159.93h0v0h0Z"/><path class="cls-5" d="M155.91,160.63c0-.15-.11-.3-.16-.46C155.8,160.33,155.86,160.48,155.91,160.63Z"/><path class="cls-5" d="M155.38,158.21a7.63,7.63,0,0,1,0-.83A7.63,7.63,0,0,0,155.38,158.21Z"/><path class="cls-5" d="M155.65,159.85c0-.17-.08-.33-.11-.49C155.57,159.52,155.61,159.68,155.65,159.85Z"/><path class="cls-5" d="M155.47,159a5.14,5.14,0,0,1-.06-.55A5.14,5.14,0,0,0,155.47,159Z"/><path class="cls-5" d="M155.37,157.38a9.55,9.55,0,0,1,.13-1.09A9.55,9.55,0,0,0,155.37,157.38Z"/><path class="cls-5" d="M155.56,152.91c.08-.14.18-.29.27-.42C155.74,152.62,155.64,152.77,155.56,152.91Z"/><path class="cls-5" d="M155.55,156a7,7,0,0,1,.28-1A7,7,0,0,0,155.55,156Z"/><path class="cls-5" d="M156.71,151.41l-.11.12.12-.11Z"/><path class="cls-5" d="M154.26,158.81c0-.1,0-.2,0-.3C154.23,158.61,154.24,158.71,154.26,158.81Z"/><path class="cls-5" d="M154.44,159.86a.17.17,0,0,0,0,.07h0S154.44,159.88,154.44,159.86Z"/><path class="cls-5" d="M155.14,153.66c.07-.15.15-.3.23-.45C155.29,153.36,155.21,153.51,155.14,153.66Z"/><path class="cls-5" d="M154.52,155.29c0-.17.09-.34.15-.52C154.61,155,154.56,155.12,154.52,155.29Z"/><path class="cls-5" d="M154.79,154.46a4.89,4.89,0,0,1,.2-.48A4.89,4.89,0,0,0,154.79,154.46Z"/><path class="cls-5" d="M155.89,154.88a6.85,6.85,0,0,1,.4-.87A6.85,6.85,0,0,0,155.89,154.88Z"/><path class="cls-5" d="M154.32,156.19c0-.2.07-.4.11-.59C154.39,155.79,154.35,156,154.32,156.19Z"/><path class="cls-5" d="M156,152.2l.33-.4Z"/><path class="cls-5" d="M154.19,157.32h0a8.52,8.52,0,0,1,.08-.87A8.52,8.52,0,0,0,154.19,157.32Z"/><path class="cls-5" d="M156.39,153.81a7.43,7.43,0,0,1,.58-.88A7.43,7.43,0,0,0,156.39,153.81Z"/><path class="cls-3" d="M192,159a10.31,10.31,0,0,1-.83.65l-.18.13a7.86,7.86,0,0,1-.87.54l-.15.08a9,9,0,0,1-.83.4l-.15.06a8.1,8.1,0,0,1-.95.31l-.2.06a8.8,8.8,0,0,1-1,.19,7.83,7.83,0,0,1-1.08.07,7.92,7.92,0,0,1-1.29-.1c-.14,0-.27-.06-.41-.09a7.68,7.68,0,0,1-.83-.19l-.47-.17c-.25-.09-.49-.19-.73-.3s-.32-.16-.48-.24l-.66-.39c-.16-.09-.31-.2-.47-.31l-.62-.47-.44-.38c-.2-.18-.39-.37-.58-.56l-.4-.42c-.2-.22-.38-.45-.56-.68s-.24-.29-.35-.44-.37-.55-.55-.83c-.07-.11-.16-.22-.23-.34a1.21,1.21,0,0,0,0,.14c-.07.18-.13.37-.19.56l-.09.28c-.06.23-.1.47-.14.71l0,.13.05,0a5,5,0,0,1,.64.52l.11.1a8.22,8.22,0,0,1,.62.68h0a.39.39,0,0,1,.06.11.56.56,0,0,1,0,.36.52.52,0,0,1-.17.27.56.56,0,0,1-.17.09h-.21a.51.51,0,0,1-.35-.19s0,0,0,0a6,6,0,0,0-.64-.68h0v.17c0,.13,0,.25,0,.37s0,.26,0,.4,0,.23,0,.34l.09.41c0,.11.05.22.08.33s.08.27.12.4.07.21.11.31.11.27.17.4l.12.28c.07.14.15.28.23.41s.09.17.14.26l.28.42c.05.06.09.14.15.2s.29.37.44.54,0,0,.05.05a6.82,6.82,0,0,0,1.17,1.05,7.84,7.84,0,0,0,4.35,1.53c.2,0,.4,0,.6,0h.37l.42-.05.36,0,.4-.09.35-.09c.13,0,.26-.08.39-.12l.34-.12.37-.16a3.13,3.13,0,0,0,.32-.15l.35-.19.31-.18.33-.22.29-.21.3-.26a3,3,0,0,0,.27-.23l.29-.28.24-.26.26-.31c.07-.09.15-.18.21-.27s.16-.24.24-.36l.18-.27c.08-.13.15-.27.22-.4s.1-.18.14-.28.14-.32.2-.48.07-.15.09-.22a6.49,6.49,0,0,0,.23-.75s0-.05,0-.08c.05-.23.1-.46.13-.69a2,2,0,0,0,0-.24c0-.17,0-.35.05-.52Z"/><path class="cls-3" d="M185.71,161.53a7.92,7.92,0,0,1-1.29-.1A7.92,7.92,0,0,0,185.71,161.53Z"/><path class="cls-3" d="M184,161.34a7.68,7.68,0,0,1-.83-.19A7.68,7.68,0,0,0,184,161.34Z"/><path class="cls-3" d="M182.71,161c-.25-.09-.49-.19-.73-.3C182.22,160.79,182.46,160.89,182.71,161Z"/><path class="cls-3" d="M178.33,157.91c-.19-.22-.38-.45-.56-.68C178,157.46,178.13,157.69,178.33,157.91Z"/><path class="cls-3" d="M177.42,156.79c-.19-.27-.37-.55-.55-.83C177.05,156.24,177.23,156.52,177.42,156.79Z"/><path class="cls-3" d="M181.5,160.44l-.66-.39Z"/><path class="cls-3" d="M180.37,159.74l-.62-.47Z"/><path class="cls-3" d="M179.31,158.89c-.2-.18-.39-.37-.58-.56C178.92,158.52,179.11,158.71,179.31,158.89Z"/><path class="cls-3" d="M191.12,159.69l-.18.13Z"/><path class="cls-3" d="M188,161.21l-.2.06Z"/><path class="cls-3" d="M192,159h0Z"/><path class="cls-3" d="M190.07,160.36l-.15.08Z"/><path class="cls-3" d="M189.09,160.84l-.15.06Z"/><path class="cls-2" d="M178.73,158.33l-.4-.42Z"/><path class="cls-2" d="M177.77,157.23c-.12-.15-.24-.29-.35-.44C177.53,156.94,177.65,157.08,177.77,157.23Z"/><path class="cls-2" d="M176.64,155.62c.07.12.16.23.23.34a4,4,0,0,1-.22-.34Z"/><path class="cls-2" d="M182,160.68c-.16-.07-.32-.16-.48-.24C181.66,160.52,181.82,160.61,182,160.68Z"/><path class="cls-2" d="M179.75,159.27l-.44-.38Z"/><path class="cls-2" d="M184.42,161.43c-.14,0-.27-.06-.41-.09C184.15,161.37,184.28,161.41,184.42,161.43Z"/><path class="cls-2" d="M180.84,160.05c-.16-.09-.31-.2-.47-.31C180.53,159.85,180.68,160,180.84,160.05Z"/><path class="cls-2" d="M183.18,161.15l-.47-.17Z"/><path class="cls-2" d="M185.7,159.68c-.22-.42-.44-.86-.65-1.31,0-.09-.09-.17-.13-.27-.24-.53-.46-1.09-.67-1.67-.05-.14-.1-.3-.15-.45-.16-.47-.32-1-.46-1.46,0-.15-.09-.29-.13-.44-.16-.63-.32-1.26-.45-1.92,0-.13-.05-.27-.07-.4-.07-.34-.13-.67-.19-1h0a7,7,0,0,0-1,.23l-.24.08a6.56,6.56,0,0,0-1,.37h0a8.08,8.08,0,0,0-.9.52l-.22.15a8.12,8.12,0,0,0-.81.64h0l0,.06a5.39,5.39,0,0,0-.53.54c-.07.07-.12.15-.19.23s-.23.28-.33.43a2.11,2.11,0,0,0-.18.27,5.08,5.08,0,0,0-.27.43c-.06.1-.11.2-.16.3l-.21.45-.06.16a4,4,0,0,0,.22.34c.18.28.36.56.55.83s.23.29.35.44.37.46.56.68l.4.42c.19.19.38.38.58.56l.44.38.62.47c.16.11.31.22.47.31l.66.39c.16.08.32.17.48.24s.48.21.73.3l.47.17a7.68,7.68,0,0,0,.83.19c.14,0,.27.07.41.09a7.92,7.92,0,0,0,1.29.1,7.83,7.83,0,0,0,1.08-.07c-.31-.43-.59-.9-.87-1.38C185.85,160,185.78,159.81,185.7,159.68Z"/><path class="cls-2" d="M184.92,158.1c0,.1.09.18.13.27C185,158.28,185,158.2,184.92,158.1Z"/><path class="cls-2" d="M185.7,159.68c.08.13.15.27.22.4C185.85,160,185.78,159.81,185.7,159.68Z"/><path class="cls-2" d="M183,151.76c0,.13,0,.27.07.4C183,152,183,151.89,183,151.76Z"/><path class="cls-2" d="M184.1,156c.05.15.1.31.15.45C184.2,156.29,184.15,156.13,184.1,156Z"/><path class="cls-2" d="M183.51,154.08c0,.15.09.29.13.44C183.6,154.37,183.55,154.23,183.51,154.08Z"/><path class="cls-4" d="M190.94,159.82a7.86,7.86,0,0,1-.87.54A7.86,7.86,0,0,0,190.94,159.82Z"/><path class="cls-4" d="M188.94,160.9a8.1,8.1,0,0,1-.95.31A8.1,8.1,0,0,0,188.94,160.9Z"/><path class="cls-4" d="M192,159a10.31,10.31,0,0,1-.83.65A10.31,10.31,0,0,0,192,159Z"/><path class="cls-4" d="M187.79,161.27a8.8,8.8,0,0,1-1,.19A8.8,8.8,0,0,0,187.79,161.27Z"/><path class="cls-4" d="M189.92,160.44a9,9,0,0,1-.83.4A9,9,0,0,0,189.92,160.44Z"/><path class="cls-4" d="M186.79,161.46c-.31-.43-.59-.9-.87-1.38C186.2,160.56,186.48,161,186.79,161.46Z"/><path class="cls-4" d="M183,151.76c-.07-.33-.12-.67-.17-1h0C182.86,151.09,182.92,151.42,183,151.76Z"/><path class="cls-4" d="M183.06,152.16c.13.66.29,1.29.45,1.92C183.35,153.45,183.19,152.82,183.06,152.16Z"/><path class="cls-4" d="M185.05,158.37c.21.45.43.89.65,1.31C185.48,159.26,185.26,158.82,185.05,158.37Z"/><path class="cls-4" d="M184.25,156.43c.21.58.43,1.14.67,1.67C184.68,157.57,184.46,157,184.25,156.43Z"/><path class="cls-4" d="M183.64,154.52c.14.5.3,1,.46,1.46C183.94,155.51,183.78,155,183.64,154.52Z"/><path class="cls-4" d="M183,151.76c0,.13,0,.27.07.4.13.66.29,1.29.45,1.92,0,.15.09.29.13.44.14.5.3,1,.46,1.46.05.15.1.31.15.45.21.58.43,1.14.67,1.67,0,.1.09.18.13.27.21.45.43.89.65,1.31.08.13.15.27.22.4.28.48.56.95.87,1.38a8.8,8.8,0,0,0,1-.19l.2-.06a8.1,8.1,0,0,0,.95-.31l.15-.06a9,9,0,0,0,.83-.4l.15-.08a7.86,7.86,0,0,0,.87-.54l.18-.13A10.31,10.31,0,0,0,192,159h0V159a7.87,7.87,0,0,0-2.08-5.73,8,8,0,0,0-1.82-1.48,7.82,7.82,0,0,0-3.71-1.09h-.49a6.19,6.19,0,0,0-1.05.08C182.87,151.09,182.92,151.43,183,151.76Z"/><path class="cls-5" d="M176,154.33h0Z"/><path class="cls-5" d="M176.06,154.12l-.12.2h0A2.12,2.12,0,0,1,176.06,154.12Z"/><path class="cls-5" d="M179.68,152a8.08,8.08,0,0,1,.9-.52A8.08,8.08,0,0,0,179.68,152Z"/><polygon class="cls-5" points="182.63 149.58 182.62 149.58 182.63 149.58 182.63 149.58"/><path class="cls-5" d="M181.18,149.93l.28-.08Z"/><path class="cls-5" d="M176.71,155.46l.21-.45Z"/><path class="cls-5" d="M177.08,154.71a5.08,5.08,0,0,1,.27-.43A5.08,5.08,0,0,0,177.08,154.71Z"/><path class="cls-5" d="M180.07,150.37l0,0Z"/><path class="cls-5" d="M176.22,153.84l.3-.44Z"/><path class="cls-5" d="M177.53,154c.1-.15.22-.29.33-.43C177.75,153.72,177.63,153.86,177.53,154Z"/><path class="cls-5" d="M176.7,153.14c.11-.15.24-.3.36-.45C176.94,152.84,176.81,153,176.7,153.14Z"/><path class="cls-5" d="M178.79,151.13A2.2,2.2,0,0,1,179,151,2.2,2.2,0,0,0,178.79,151.13Z"/><path class="cls-5" d="M178.65,152.74a8.12,8.12,0,0,1,.81-.64A8.12,8.12,0,0,0,178.65,152.74Z"/><path class="cls-5" d="M178.05,153.35a5.39,5.39,0,0,1,.53-.54A5.39,5.39,0,0,0,178.05,153.35Z"/><path class="cls-5" d="M180.59,151.43a6.56,6.56,0,0,1,1-.37A6.56,6.56,0,0,0,180.59,151.43Z"/><path class="cls-5" d="M181.79,151a7,7,0,0,1,1-.23A7,7,0,0,0,181.79,151Z"/><path class="cls-5" d="M177.84,151.88h0c-.21.19-.41.4-.6.61.19-.21.39-.42.6-.61Z"/><path class="cls-6" d="M155.65,119h8.85a.88.88,0,0,0,0-1.76h-8.85a.88.88,0,1,0,0,1.76Z"/><path class="cls-6" d="M181.6,119h8.85a.88.88,0,0,0,0-1.76H181.6a.88.88,0,1,0,0,1.76Z"/><path class="cls-6" d="M193.13,158v-.12a19.68,19.68,0,0,0,4.44-13c0-8.68-4.74-15.8-10.78-16.57-2.71,3.9-4.45,9.87-4.45,16.57a37.59,37.59,0,0,0,.3,4.69h0a9.29,9.29,0,0,0-1.16.27l-.28.08a11,11,0,0,0-1.08.42l0,0a8.07,8.07,0,0,0-1,.59,2.2,2.2,0,0,0-.25.17,8.45,8.45,0,0,0-.95.75h0c-.21.19-.41.4-.6.61l-.18.2c-.12.15-.25.3-.36.45s-.12.17-.18.26l-.3.44-.16.28a2.12,2.12,0,0,0-.11.21h0s0,.1-.07.14a10.36,10.36,0,0,0-.47,1.08v0a9.45,9.45,0,0,0-.31,1.16c0,.05,0,.1,0,.15h0l-.37-.1-.14,0a4.34,4.34,0,0,0-.52-.08h-.33l-.26,0-.27,0-.44.08-.21,0h0a1,1,0,0,1,0-.17,8.49,8.49,0,0,0-.21-1.14.36.36,0,0,0,0-.1,9.73,9.73,0,0,0-.39-1.15l-.12-.27a8.88,8.88,0,0,0-.55-1.06l-.05-.07a8.65,8.65,0,0,0-.67-.92l-.09-.13h0a22.24,22.24,0,0,0,1.08-6.91c0-8.68-4.74-15.8-10.78-16.57-2.71,3.9-4.45,9.87-4.45,16.57a36.62,36.62,0,0,0,.59,6.5l0,0h0l-.12.11-.23.27-.33.4-.21.29c-.09.13-.19.28-.27.42s-.13.2-.19.3-.16.3-.23.45a2.3,2.3,0,0,0-.15.32,4.89,4.89,0,0,0-.2.48l-.12.31c-.06.18-.11.35-.15.52l-.09.31c0,.19-.08.39-.11.59a2.38,2.38,0,0,0,0,.26,8.52,8.52,0,0,0-.08.87,9.41,9.41,0,0,0,0,1.19c0,.1,0,.2,0,.3a8.85,8.85,0,0,0,.18,1.05s0,0,0,.07v0h0v0a8.41,8.41,0,0,0,.31,1l.12.27c.09.23.19.45.3.67l.17.31c.12.21.25.42.39.62s.11.18.18.27c.2.27.42.55.65.81h0l0,0a9.26,9.26,0,0,0,6.32,2.93h.4a9.16,9.16,0,0,0,9.13-8.75,1.48,1.48,0,0,0,0-.21l.12,0,.29-.08.27,0,.33,0c.14,0,.27,0,.42,0a3.29,3.29,0,0,1,.68.14l.16.05.16.07a2.29,2.29,0,0,0,0,.25,9.18,9.18,0,0,0,6,9,9.38,9.38,0,0,0,2.7.53h.4a9.16,9.16,0,0,0,9.13-8.75v0A8.51,8.51,0,0,0,193.13,158Zm-36.55,4a7.16,7.16,0,0,1-.56-1.06l0-.09h0a1,1,0,0,0-.07-.15c0-.15-.11-.3-.16-.46s-.07-.21-.1-.32-.08-.33-.11-.49,0-.21-.07-.32a5.14,5.14,0,0,1-.06-.55,2.4,2.4,0,0,1,0-.28,7.63,7.63,0,0,1,0-.83,9.55,9.55,0,0,1,.13-1.09c0-.09,0-.17.05-.25a7,7,0,0,1,.28-1l.06-.14a6.85,6.85,0,0,1,.4-.87l.1-.2a7.43,7.43,0,0,1,.58-.88l0-.05,0,0,.06-.08a8.29,8.29,0,0,1,.85-.93l.09-.07a5.17,5.17,0,0,1,.51-.42,1.88,1.88,0,0,1,.23-.16c.13-.09.26-.19.4-.27l.27-.15.39-.22.29-.13.4-.16.31-.11.41-.13.33-.07.41-.09.33,0,.43-.05h1a7.53,7.53,0,0,1,.83.08l.29.06.56.13.32.09.5.18.31.13.47.23.29.15c.16.09.32.2.47.3a1.88,1.88,0,0,1,.23.16,6.65,6.65,0,0,1,.59.46l.06.06a5.48,5.48,0,0,1,.59.59c.06.06.11.13.17.2s.24.29.35.44l.06.08v0l.08.12c.15.22.28.44.41.67l.12.21a8.81,8.81,0,0,1,.38.89,1.06,1.06,0,0,1,.06.19,6.39,6.39,0,0,1,.22.78l.06.27a8.28,8.28,0,0,1,.13,1v0l-.19.1-.24.15-.14.09-.2.14-.06,0a2.1,2.1,0,0,0-.25.21h0a.51.51,0,0,0-.12.59.39.39,0,0,0,.08.14.46.46,0,0,0,.18.13h.06a.32.32,0,0,0,.14,0h0l.11,0,.07,0a.42.42,0,0,0,.17-.1l.08-.06s0,0,.06-.05l.16-.12,0,0c0,.07,0,.13,0,.19s0,.23-.05.35,0,.28-.08.42l-.09.33c0,.14-.08.27-.12.41l-.11.32-.16.39-.15.3c-.06.13-.13.25-.19.37s-.11.2-.17.29-.16.24-.24.35l-.18.27-.28.34c-.07.07-.13.15-.2.23l-.34.34-.18.19c-.18.16-.37.32-.57.47l-.07,0-.55.37-.23.13-.42.23-.27.12c-.14.06-.28.13-.42.18l-.3.1-.41.14-.32.07c-.14,0-.28.07-.43.09l-.33.05-.44,0h-.33c-.2,0-.4,0-.61,0a7.87,7.87,0,0,1-5.52-2.58h0a9.38,9.38,0,0,1-.78-1ZM176.92,155c.05-.1.1-.2.16-.3a5.08,5.08,0,0,1,.27-.43,2.11,2.11,0,0,1,.18-.27c.1-.15.22-.29.33-.43s.12-.16.19-.23a5.39,5.39,0,0,1,.53-.54l0-.06h0a8.12,8.12,0,0,1,.81-.64l.22-.15a8.08,8.08,0,0,1,.9-.52h0a6.56,6.56,0,0,1,1-.37l.24-.08a7,7,0,0,1,1-.23h0a6.19,6.19,0,0,1,1.05-.08h.49a7.82,7.82,0,0,1,3.71,1.09,8,8,0,0,1,1.82,1.48A7.87,7.87,0,0,1,192,159V159c0,.17,0,.35-.05.52a2,2,0,0,1,0,.24c0,.23-.08.46-.13.69,0,0,0,.06,0,.08a6.49,6.49,0,0,1-.23.75c0,.07-.06.14-.09.22s-.13.33-.2.48-.1.19-.14.28-.14.27-.22.4l-.18.27c-.08.12-.15.24-.24.36s-.14.18-.21.27l-.26.31-.24.26-.29.28a3,3,0,0,1-.27.23l-.3.26-.29.21-.33.22-.31.18-.35.19a3.13,3.13,0,0,1-.32.15l-.37.16-.34.12c-.13,0-.26.09-.39.12l-.35.09-.4.09-.36,0-.42.05h-.37c-.2,0-.4,0-.6,0a7.84,7.84,0,0,1-4.35-1.53,6.82,6.82,0,0,1-1.17-1.05s0,0-.05-.05-.3-.35-.44-.54-.1-.14-.15-.2l-.28-.42c0-.09-.1-.17-.14-.26s-.16-.27-.23-.41l-.12-.28c-.06-.13-.12-.27-.17-.4s-.07-.21-.11-.31-.09-.27-.12-.4-.06-.22-.08-.33l-.09-.41c0-.11,0-.23,0-.34s0-.27,0-.4,0-.24,0-.37v-.17h0a6,6,0,0,1,.64.68s0,0,0,0a.51.51,0,0,0,.35.19h.21a.56.56,0,0,0,.17-.09.52.52,0,0,0,.17-.27.56.56,0,0,0,0-.36.39.39,0,0,0-.06-.11h0a8.22,8.22,0,0,0-.62-.68l-.11-.1a5,5,0,0,0-.64-.52l-.05,0,0-.13c0-.24.08-.48.14-.71l.09-.28c.06-.19.12-.38.19-.56a1.21,1.21,0,0,1,0-.14h0l.06-.16Z"/></svg>