<svg id="Layer_1" data-name="Layer 1" xmlns="http://www.w3.org/2000/svg" viewBox="0 0 280 280"><defs><style>.cls-1{fill:#00b5ac;}.cls-2{fill:#fff;}.cls-3{fill:#073778;}</style></defs><title>Artboard 25 copy</title><path class="cls-1" d="M219.68,98.9H77.1a82.28,82.28,0,1,0,142.58,0ZM189.4,120.8a7.37,7.37,0,0,1,4.9-2.33,6.9,6.9,0,0,1,5.12,2.36.71.71,0,0,1,0,1,.69.69,0,0,1-.5.2.71.71,0,0,1-.51-.21,5.6,5.6,0,0,0-4.07-1.94,6.1,6.1,0,0,0-3.89,1.86.7.7,0,0,1-1-.94Zm-24.33.08a7.43,7.43,0,0,1,4.9-2.33,6.92,6.92,0,0,1,5.13,2.36.71.71,0,0,1,0,1,.66.66,0,0,1-.49.2.71.71,0,0,1-.51-.21A5.54,5.54,0,0,0,170,120a6.1,6.1,0,0,0-3.89,1.86.71.71,0,0,1-1,.05A.7.7,0,0,1,165.07,120.88Zm3.9,40.58a7.59,7.59,0,0,1-1.07.07c-6.55,0-11.86-7.45-11.86-16.64s5.31-16.64,11.86-16.64a9.45,9.45,0,0,1,1.07.07c6.05.77,10.79,7.89,10.79,16.57S175,160.7,169,161.46Zm15.27-4a3.31,3.31,0,0,1-1.51,2.17,4.86,4.86,0,0,1-2.57.64,7.35,7.35,0,0,1-1.49-.15.71.71,0,0,1-.53-.86.7.7,0,0,1,.85-.52c.14,0,3.33.74,3.87-1.6s-2.55-3.25-2.68-3.29a.7.7,0,1,1,.37-1.36C182.12,153,184.92,154.56,184.24,157.51Zm10.94,4a7.83,7.83,0,0,1-1.08.07c-6.55,0-11.86-7.45-11.86-16.64s5.31-16.64,11.86-16.64a9.79,9.79,0,0,1,1.08.07c6,.77,10.78,7.89,10.78,16.57S201.22,160.7,195.18,161.46Z"/><path class="cls-2" d="M195.18,128.32a9.79,9.79,0,0,0-1.08-.07c-6.55,0-11.86,7.45-11.86,16.64s5.31,16.64,11.86,16.64a7.83,7.83,0,0,0,1.08-.07c-2.71-3.89-4.45-9.87-4.45-16.57S192.47,132.22,195.18,128.32Z"/><path class="cls-3" d="M195.18,128.32c-2.71,3.9-4.45,9.87-4.45,16.57s1.74,12.68,4.45,16.57c6-.76,10.78-7.89,10.78-16.57S201.22,129.09,195.18,128.32Z"/><path class="cls-2" d="M169,128.32a9.45,9.45,0,0,0-1.07-.07c-6.55,0-11.86,7.45-11.86,16.64s5.31,16.64,11.86,16.64a7.59,7.59,0,0,0,1.07-.07c-2.7-3.89-4.44-9.87-4.44-16.57S166.27,132.22,169,128.32Z"/><path class="cls-3" d="M169,128.32c-2.7,3.9-4.44,9.87-4.44,16.57s1.74,12.68,4.44,16.57c6.05-.76,10.79-7.89,10.79-16.57S175,129.09,169,128.32Z"/><path class="cls-3" d="M180.55,152.54a.7.7,0,1,0-.37,1.36c.13,0,3.23.93,2.68,3.29s-3.73,1.63-3.87,1.6a.7.7,0,0,0-.85.52.71.71,0,0,0,.53.86,7.35,7.35,0,0,0,1.49.15,4.86,4.86,0,0,0,2.57-.64,3.31,3.31,0,0,0,1.51-2.17C184.92,154.56,182.12,153,180.55,152.54Z"/><path class="cls-3" d="M166.13,121.82A6.1,6.1,0,0,1,170,120a5.54,5.54,0,0,1,4.07,1.94.71.71,0,0,0,.51.21.66.66,0,0,0,.49-.2.71.71,0,0,0,0-1,6.92,6.92,0,0,0-5.13-2.36,7.43,7.43,0,0,0-4.9,2.33.7.7,0,0,0,.06,1A.71.71,0,0,0,166.13,121.82Z"/><path class="cls-3" d="M190.45,121.74a6.1,6.1,0,0,1,3.89-1.86,5.6,5.6,0,0,1,4.07,1.94.71.71,0,0,0,.51.21.69.69,0,0,0,.5-.2.71.71,0,0,0,0-1,6.9,6.9,0,0,0-5.12-2.36,7.37,7.37,0,0,0-4.9,2.33.7.7,0,0,0,1,.94Z"/><path class="cls-3" d="M148.39,57.72A82.25,82.25,0,0,0,77.1,98.9H219.68A82.25,82.25,0,0,0,148.39,57.72Z"/><circle class="cls-2" cx="165.21" cy="145.79" r="4.42"/><circle class="cls-2" cx="191.16" cy="145.79" r="4.42"/><path class="cls-2" d="M122.94,120.81l-2.62,7.37-5.81,1.75v0L111,124.67l2.62-7.37s-8.6-.71-9.94,7.66,5,11.72,5,11.72L96.48,165.93s-1.81,4,1.39,6.27c.32.12.42.32.71.44,5.56,2.15,7-3.31,7-3.31l9-30.39s7.07,1.43,11.3-5.92S122.94,120.81,122.94,120.81Zm-21.25,48.78a1.69,1.69,0,1,1,.79-2.25A1.69,1.69,0,0,1,101.69,169.59Z"/><path class="cls-3" d="M78.23,98.43S70,79.44,49.33,91C49.33,91,55.94,105.86,78.23,98.43Z"/><path class="cls-3" d="M77.83,98.84S60.69,87.22,49.44,108C49.44,108,63,117.05,77.83,98.84Z"/></svg>